<?xml version="1.0" standalone="no"?><!DOCTYPE svg PUBLIC "-//W3C//DTD SVG 1.1//EN" "http://www.w3.org/Graphics/SVG/1.1/DTD/svg11.dtd"><svg t="1599443008275" class="icon" viewBox="0 0 1024 1024" version="1.1" xmlns="http://www.w3.org/2000/svg" p-id="12898" xmlns:xlink="http://www.w3.org/1999/xlink" width="32" height="32"><defs><style type="text/css"></style></defs><path d="M854.528 34.816H172.032c-79.36 0-143.36 64.512-143.36 143.872v441.344c0 22.016 17.92 39.424 39.424 39.424h752.64c22.016 0 39.424-17.92 39.424-39.424 0-22.016-17.92-39.424-39.424-39.424H107.52v-401.92c0-35.328 28.672-64.512 64.512-64.512h682.496c35.328 0 64.512 28.672 64.512 64.512v345.6c0 22.016 17.92 39.424 39.424 39.424s39.424-17.92 39.424-39.424v-345.6c0.512-79.36-64-143.872-143.36-143.872z m104.448 712.192H68.096c-22.016 0-39.424 17.92-39.424 39.424s17.92 39.424 39.424 39.424h407.04c-1.024 3.072-1.536 6.656-1.536 9.728v138.752c0 22.016 17.92 39.424 39.424 39.424s39.424-17.92 39.424-39.424V835.584c0-3.584-0.512-6.656-1.536-9.728h407.04c22.016 0 39.424-17.92 39.424-39.424s-16.896-39.424-38.4-39.424z" p-id="12899"></path><path d="M406.016 207.36c-18.944 1.024-32.768 11.776-40.96 31.744L286.72 449.536v3.072c-1.024 4.096-1.536 7.68-1.536 10.752 1.024 16.384 10.24 24.064 27.136 24.064 14.336 0 23.552-6.144 28.672-17.92l12.288-36.352H460.8l10.752 36.352c5.12 12.288 14.848 17.92 28.672 17.92 17.408 0 26.112-7.68 27.136-22.528 0-4.096-1.024-9.216-3.072-15.36l-75.776-210.432c-9.216-21.504-23.04-31.744-42.496-31.744z m-36.352 172.544l36.352-112.128 36.352 112.128h-72.704z m204.8-167.936c-17.92 1.024-27.648 10.752-28.672 28.672v218.112c1.024 17.92 11.264 27.648 30.208 28.672h66.56c84.992-4.096 129.024-49.152 133.12-134.656-3.072-90.624-48.64-137.728-136.192-140.8h-65.024z m140.8 139.264c-2.048 53.248-26.112 81.408-72.704 83.456h-39.424V264.704h34.816c50.176 1.024 76.288 29.696 77.312 86.528z" p-id="12900"></path></svg>