<?xml version="1.0" standalone="no"?><!DOCTYPE svg PUBLIC "-//W3C//DTD SVG 1.1//EN" "http://www.w3.org/Graphics/SVG/1.1/DTD/svg11.dtd"><svg t="1599442105191" class="icon" viewBox="0 0 1024 1024" version="1.1" xmlns="http://www.w3.org/2000/svg" p-id="4880" xmlns:xlink="http://www.w3.org/1999/xlink" width="32" height="32"><defs><style type="text/css"></style></defs><path d="M514.048 394.24c-106.496 0-193.024-86.528-193.024-193.024S407.552 8.192 514.048 8.192s193.024 86.528 193.024 193.024S620.544 394.24 514.048 394.24z m0-305.664c-61.952 0-112.64 50.688-112.64 112.64s50.688 112.64 112.64 112.64 112.64-50.688 112.64-112.64-50.176-112.64-112.64-112.64zM973.824 1008.128c-22.016 0-39.936-17.92-39.936-39.936v-387.584c0-22.016 17.92-39.936 39.936-39.936s39.936 17.92 39.936 39.936v387.584c0 22.016-17.92 39.936-39.936 39.936zM54.784 1008.128c-22.016 0-39.936-17.92-39.936-39.936v-387.584C14.848 503.296 77.824 440.32 155.136 440.32H860.16c22.016 0 39.936 17.92 39.936 39.936s-17.92 39.936-39.936 39.936H155.136c-33.28 0-59.904 27.136-59.904 59.904V967.68c-0.512 22.528-18.432 40.448-40.448 40.448z" p-id="4881"></path><path d="M514.048 821.76c-6.656 0-12.8-1.536-18.944-4.608l-212.48-112.64c-19.456-10.24-27.136-34.816-16.896-54.272s34.816-27.136 54.272-16.896l194.048 102.4 194.048-102.4c19.456-10.24 44.032-3.072 54.272 16.896 10.24 19.456 3.072 44.032-16.896 54.272l-212.48 112.64c-6.144 3.072-12.288 4.608-18.944 4.608z" p-id="4882"></path></svg>