<?xml version="1.0" standalone="no"?><!DOCTYPE svg PUBLIC "-//W3C//DTD SVG 1.1//EN" "http://www.w3.org/Graphics/SVG/1.1/DTD/svg11.dtd"><svg t="1603954549464" class="icon" viewBox="0 0 1024 1024" version="1.1" xmlns="http://www.w3.org/2000/svg" p-id="4714" width="64" height="64" xmlns:xlink="http://www.w3.org/1999/xlink"><defs><style type="text/css"></style></defs><path d="M864 960a32 32 0 1 1 0 64h-704a32 32 0 1 1 0-64h704zM512 0a256 256 0 0 1 128.064 477.696L640 576h96a160 160 0 0 1 159.68 149.504L896 736V896H128v-160a160 160 0 0 1 149.504-159.68L288 576H384V477.76A256 256 0 0 1 256.32 268.8L256 256a256 256 0 0 1 256-256z m224 640h-448a96 96 0 0 0-95.552 86.784L192 736V832h640v-96a96 96 0 0 0-77.76-94.272l-8.96-1.28L736 640zM576 512H448v64h128V512zM512 64a192 192 0 1 0 0 384 192 192 0 0 0 0-384z" p-id="4715"></path></svg>