<?xml version="1.0" standalone="no"?><!DOCTYPE svg PUBLIC "-//W3C//DTD SVG 1.1//EN" "http://www.w3.org/Graphics/SVG/1.1/DTD/svg11.dtd"><svg t="1600069814277" class="icon" viewBox="0 0 1024 1024" version="1.1" xmlns="http://www.w3.org/2000/svg" p-id="12870" xmlns:xlink="http://www.w3.org/1999/xlink" width="16" height="16"><defs><style type="text/css"></style></defs><path d="M607.2 128H416.8c-17.6 0-32.8 14.4-32.8 32.8V256H160c-17.6 0-32 14.4-32 32v576c0 17.6 14.4 32 32 32h704c17.6 0 32-14.4 32-32V288c0-17.6-14.4-32-32-32H640V160.8c0-18.4-14.4-32.8-32.8-32.8zM448 256v-64h128v64H448z m64 256l-320-53.6V320h640v138.4L512 512z m0 32l320-53.6V832H192V490.4L512 544z m48-160H464c-8.8 0-16 7.2-16 16v32c0 8.8 7.2 16 16 16h96c8.8 0 16-7.2 16-16v-32c0-8.8-7.2-16-16-16z" p-id="12871"></path></svg>