<?xml version="1.0" encoding="UTF-8"?>
<svg width="11px" height="14px" viewBox="0 0 11 14" version="1.1" xmlns="http://www.w3.org/2000/svg" xmlns:xlink="http://www.w3.org/1999/xlink">
    <title>按钮</title>
    <g id="自定义表单" stroke="none" stroke-width="1" fill="none" fill-rule="evenodd">
        <g id="桌面端-HD" transform="translate(-1078.000000, -22.000000)" fill="#666666" fill-rule="nonzero" stroke="#666666" stroke-width="0.3">
            <g id="按钮" transform="translate(1079.000000, 23.000000)">
                <path d="M9.25195652,6.81173913 C10.059375,7.12432065 9.80616848,9.03179348 9.0952038,10.1620109 C8.8623913,10.5316168 8.71955163,10.8279755 8.56975543,11.2221739 C8.54855967,11.2773372 8.52784331,11.3326835 8.5076087,11.3882065 C8.30077446,11.9493614 8.25254076,12.0722554 8.10366848,12.3917935 C8.04937048,12.5078221 7.91129352,12.5578646 7.79526495,12.5035666 C7.67923637,12.4492686 7.62919385,12.3111916 7.68349185,12.195163 C7.82493207,11.8923098 7.87039402,11.7763723 8.07213315,11.2282065 L8.13612772,11.0566033 C8.28380227,10.6568948 8.4737906,10.2741215 8.70285326,9.91480978 C9.27513587,9.0048913 9.4880163,7.40027174 9.08407609,7.24350543 C8.79005435,7.12987772 8.46262228,7.39839674 8.10366848,8.17149457 C7.98262228,8.4326087 7.58888587,8.2828125 7.67144022,8.006875 C7.99839674,6.9197962 7.90703804,6.40084239 7.49752717,6.31644022 C7.07085598,6.22877717 6.75085598,6.63086957 6.55561141,7.66322011 C6.49809783,7.96559783 6.04453804,7.88165761 6.0992663,7.57881793 C6.30052989,6.46391304 6.15955163,5.93615489 5.76441576,5.87539402 C5.3414538,5.81046196 5.01404891,6.17683424 4.78725543,7.08396739 C4.72095109,7.34971467 4.32951087,7.30101902 4.33046196,7.02692935 C4.33740489,5.27851902 4.31282609,4.04304348 4.25625,3.32421196 C4.22748641,2.95179348 4.02528533,2.77046196 3.76558424,2.78716033 C3.5095788,2.8038587 3.30970109,3.00790761 3.30970109,3.30658967 C3.30970109,3.4109375 3.31201087,3.57834239 3.31711957,3.85243207 L3.33427989,4.71040761 C3.34400815,5.21544837 3.35096467,5.63470109 3.35514946,6.0386413 C3.36441576,6.98334239 3.3588587,7.71516304 3.33195652,8.21741848 C3.31572011,8.52118207 3.2920788,8.73591033 3.2572962,8.86714674 C3.22019022,9.00536685 3.17427989,9.09069293 3.04349185,9.12779891 C2.86633152,9.17834239 2.77264946,9.08327446 2.70169837,8.9330163 C2.15536685,7.7782337 0.96673913,6.42540761 0.517350543,6.68002717 C0.354103261,6.77186141 0.600828804,7.613125 1.20001359,8.7382337 C1.70459239,9.68616848 2.43131793,10.7876223 2.6172962,10.9392799 C2.89740489,11.1669973 3.17752717,11.5004348 3.4604212,11.9377717 C3.50540463,12.0073609 3.50984568,12.0956622 3.47207144,12.1694136 C3.43429721,12.243165 3.36004649,12.2911617 3.27728883,12.2953239 C3.19453116,12.2994862 3.1158394,12.2591815 3.07085598,12.1895924 C2.81254076,11.7893614 2.56256793,11.4925543 2.32418478,11.2991576 C2.07328804,11.0941712 1.32523098,9.9597962 0.790502717,8.95620924 C0.0271467391,7.5217663 -0.249266304,6.5803125 0.288709239,6.27608696 C1.02842391,5.85777174 2.1507337,6.99122283 2.86586957,8.24570652 L2.86865489,8.19285326 C2.89508152,7.70309783 2.90112772,6.97869565 2.89137228,6.04327446 C2.88673913,5.64118207 2.88024457,5.22286685 2.87050272,4.7196875 L2.85381793,3.86171196 C2.84962193,3.67653826 2.84699503,3.49133234 2.8459375,3.30611413 C2.8459375,2.75887228 3.24013587,2.35679348 3.73543478,2.32432065 C4.2520788,2.29046196 4.66993207,2.66611413 4.71862772,3.28802989 C4.76313859,3.85243207 4.78819293,4.71828804 4.79421196,5.88744565 C5.06413043,5.51644022 5.41057065,5.35179348 5.83491848,5.41720109 C6.26157609,5.48258152 6.5138587,5.76455163 6.6080163,6.24084239 C6.86216033,5.91248641 7.18865489,5.77985054 7.5907337,5.86240489 C8.11341033,5.97 8.34899457,6.36744565 8.328125,7.01440217 C8.61334239,6.75794837 8.9208288,6.68328804 9.25149457,6.81127717 L9.25195652,6.81173913 Z M6.50877717,3.018125 L6.045,3.018125 C6.045,1.60501359 5.0019837,0.467391304 3.72615489,0.467391304 C2.45032609,0.467391304 1.40733696,1.60502717 1.40733696,3.018125 L0.943559783,3.018125 C0.943559783,1.35782609 2.18460598,0.00362771739 3.72616848,0.00362771739 C5.26773098,0.00362771739 6.50877717,1.35782609 6.50877717,3.018125 L6.50877717,3.018125 Z" id="形状"></path>
            </g>
        </g>
    </g>
</svg>