<?xml version="1.0" encoding="UTF-8"?>
<svg width="12px" height="12px" viewBox="0 0 12 12" version="1.1" xmlns="http://www.w3.org/2000/svg" xmlns:xlink="http://www.w3.org/1999/xlink">
    <title>多选框组</title>
    <g id="自定义表单" stroke="none" stroke-width="1" fill="none" fill-rule="evenodd">
        <g id="桌面端-HD" transform="translate(-43.000000, -328.000000)" fill="#666666" fill-rule="nonzero">
            <g id="编组-12" transform="translate(25.000000, 328.000000)">
                <g id="多选框组" transform="translate(18.000000, 0.000000)">
                    <polygon id="路径" points="8.74240385 3.49658654 5.06206731 7.149375 3.11206731 4.95216346 2.50788462 5.50139423 5.00711538 8.33019231 9.31918269 4.07307692"></polygon>
                    <path d="M9.98322115,0.662163462 C10.6345673,0.665048077 11.1617308,1.19235577 11.1647596,1.84370192 L11.1647596,9.98322115 C11.161875,10.6345673 10.6345673,11.1617308 9.98322115,11.1647596 L1.84370192,11.1647596 C1.19235577,11.161875 0.665192308,10.6345673 0.662163462,9.98322115 L0.662163462,1.84370192 C0.665048077,1.19235577 1.19235577,0.665192308 1.84370192,0.662163462 L9.98322115,0.662163462 M9.98322115,0.00576923077 L1.84370192,0.00576923077 C0.832788462,0.00576923077 0.00576923077,0.832788462 0.00576923077,1.84370192 L0.00576923077,9.98322115 C0.00576923077,10.9939904 0.832788462,11.8211538 1.84370192,11.8211538 L9.98322115,11.8211538 C10.9939904,11.8211538 11.8211538,10.9941346 11.8211538,9.98322115 L11.8211538,1.84370192 C11.8211538,0.832788462 10.9941346,0.00576923077 9.98322115,0.00576923077 Z" id="形状"></path>
                    <path d="M9.98322115,0.00576923077 L1.84370192,0.00576923077 C0.832788462,0.00576923077 0.00576923077,0.832788462 0.00576923077,1.84370192 L0.00576923077,9.98322115 L0.662163462,9.98322115 L0.662163462,1.84370192 C0.665048077,1.19235577 1.19235577,0.665192308 1.84370192,0.662163462 L9.98322115,0.662163462 L9.98322115,0.00576923077" id="路径"></path>
                </g>
            </g>
        </g>
    </g>
</svg>