<?xml version="1.0" encoding="UTF-8"?>
<svg width="13px" height="12px" viewBox="0 0 13 12" version="1.1" xmlns="http://www.w3.org/2000/svg" xmlns:xlink="http://www.w3.org/1999/xlink">
    <title>颜色选择</title>
    <g id="自定义表单" stroke="none" stroke-width="1" fill="none" fill-rule="evenodd">
        <g id="桌面端-HD" transform="translate(-223.000000, -452.000000)" fill="#666666" fill-rule="nonzero">
            <g id="编组-16" transform="translate(206.000000, 452.000000)">
                <g id="颜色选择" transform="translate(17.000000, 0.000000)">
                    <path d="M5.56909091,11.7954545 C5.34654545,11.7954545 5.11636364,11.766 4.88509091,11.7081818 C4.728,11.67 4.632,11.5150909 4.66363636,11.358 C4.69527273,11.2009091 4.84581818,11.0972727 5.00509091,11.1201818 C5.23963636,11.1572727 5.47418182,11.1801818 5.69781818,11.1889091 C5.85624002,11.1978788 5.98027965,11.328662 5.98085973,11.4873365 C5.98143575,11.646011 5.85835228,11.7776945 5.7,11.7878182 L5.66509091,11.79 C5.6332044,11.7934484 5.60116281,11.795269 5.56909091,11.7954545" id="路径"></path>
                    <path d="M5.94327273,11.7943636 C5.5891741,11.7938857 5.23568176,11.7650664 4.88618182,11.7081818 C3.63328665,11.3978676 2.7505907,10.2770908 2.74254545,8.98636364 C2.69127273,8.68527273 2.48836364,8.41363636 2.24618182,8.32090909 C2.23249249,8.31608331 2.21933301,8.30986911 2.20690909,8.30236364 C2.06414965,8.22290547 1.90023777,8.1897419 1.73781818,8.20745455 C1.6663806,8.230483 1.59298268,8.24691537 1.51854545,8.25654545 C1.15390186,8.30660164 0.785185792,8.19911777 0.504559081,7.96095979 C0.223932369,7.72280181 0.0579137005,7.37647519 0.048,7.00854545 C-0.322909091,4.26381818 1.48472727,1.506 4.35272727,0.443454545 C5.13304787,0.15207368 5.95905303,0.00209242113 6.792,0.000545454545 C9.38290909,0.000545454545 11.5865455,1.43836364 12.4058182,3.66163636 C13.5185455,6.67036364 11.712,10.1209091 8.38145455,11.3536364 C7.60137874,11.6442808 6.77573397,11.7935248 5.94327273,11.7943636 M5.01818182,11.1223636 C5.24836364,11.1583636 5.47854545,11.1812727 5.69781818,11.19 C6.54183942,11.2208288 7.38367099,11.0851571 8.17527273,10.7907273 C11.1949091,9.67254545 12.8410909,6.56781818 11.8450909,3.87 C11.112,1.88454545 9.12872727,0.601636364 6.79309091,0.601636364 C6.03927273,0.601636364 5.28872727,0.738 4.56218182,1.00636364 C1.94945455,1.97290909 0.302181818,4.47 0.645818182,6.94309091 L0.648,6.98127273 C0.65217985,7.36225274 0.961906578,7.66906211 1.34290909,7.66963636 C1.37563636,7.66963636 1.40618182,7.66527273 1.43781818,7.662 C1.48350385,7.65548322 1.52844425,7.64452215 1.572,7.62927273 C1.59082772,7.62288705 1.61017256,7.61814209 1.62981818,7.61509091 C1.9226971,7.57481765 2.22081921,7.62787651 2.48181818,7.76672727 C2.916,7.94345455 3.25963636,8.39945455 3.336,8.91109091 C3.34036364,8.92745455 3.34036364,8.94381818 3.34036364,8.96236364 C3.34036364,9.02345455 3.34472727,9.08345455 3.35127273,9.14454545 C3.42741777,10.0921874 4.09712881,10.8868118 5.01818182,11.1223636" id="形状"></path>
                    <path d="M2.75890909,6.39763636 C2.17044811,6.36564015 1.70968962,5.87914839 1.70968962,5.28981818 C1.70968962,4.70048798 2.17044811,4.21399622 2.75890909,4.182 C3.16298436,4.16931835 3.54191284,4.37764981 3.74770031,4.7256285 C3.95348778,5.07360718 3.95348778,5.50602918 3.74770031,5.85400787 C3.54191284,6.20198656 3.16298436,6.41031801 2.75890909,6.39763636 M2.75890909,4.71545455 C2.44139557,4.71545455 2.184,4.97285011 2.184,5.29036364 C2.184,5.60787716 2.44139557,5.86527273 2.75890909,5.86527273 C3.07642261,5.86527273 3.33381818,5.60787716 3.33381818,5.29036364 C3.33381818,4.97285011 3.07642261,4.71545455 2.75890909,4.71545455 M4.44,4.46890909 C4.03591951,4.48139019 3.65709527,4.2728718 3.45148012,3.92479245 C3.24586498,3.5767131 3.24607789,3.14429238 3.4520357,2.79641567 C3.65799351,2.44853896 4.0370229,2.24039372 4.44109091,2.25327273 C5.03938473,2.27234237 5.51443979,2.76302194 5.5141452,3.36161952 C5.51385033,3.96021709 5.03831231,4.45042862 4.44,4.46890909 M4.44,2.78781818 C4.13251578,2.80122194 3.8901284,3.0544056 3.8901284,3.36218182 C3.8901284,3.66995804 4.13251578,3.92314169 4.44,3.93654545 C4.65117167,3.94575079 4.85036373,3.83833554 4.95869679,3.65683579 C5.06702985,3.47533604 5.06702985,3.2490276 4.95869679,3.06752785 C4.85036373,2.88602809 4.65117167,2.77861285 4.44,2.78781818 M6.44290909,10.5747273 C5.39672727,10.5747273 4.54690909,9.72490909 4.54690909,8.67981818 C4.58158671,7.6577105 5.42021331,6.84705392 6.44290909,6.84705392 C7.46560487,6.84705392 8.30423148,7.6577105 8.33890909,8.67981818 C8.33710597,9.72602559 7.48911736,10.5735263 6.44290909,10.5747273 M6.44290909,7.44381818 C5.78047057,7.4716564 5.25775966,8.01679499 5.25775966,8.67981818 C5.25775966,9.34284138 5.78047057,9.88797996 6.44290909,9.91581818 C7.10534761,9.88797996 7.62805852,9.34284138 7.62805852,8.67981818 C7.62805852,8.01679499 7.10534761,7.4716564 6.44290909,7.44381818 M7.13018182,3.95945455 C6.72610132,3.97193565 6.34727709,3.76341726 6.14166194,3.41533791 C5.9360468,3.06725855 5.93625971,2.63483783 6.14221752,2.28696113 C6.34817533,1.93908442 6.72720472,1.73093917 7.13127273,1.74381818 C7.72956655,1.76288782 8.20462161,2.25356739 8.20432701,2.85216497 C8.20403215,3.45076255 7.72849413,3.94097408 7.13018182,3.95945455 M7.13018182,2.27836364 C6.82975198,2.30105777 6.5975686,2.55144151 6.5975686,2.85272727 C6.5975686,3.15401304 6.82975198,3.40439678 7.13018182,3.42709091 C7.43766603,3.41368715 7.68005342,3.1605035 7.68005342,2.85272727 C7.68005342,2.54495105 7.43766603,2.2917674 7.13018182,2.27836364 M9.70690909,5.1954567 C9.25787989,5.19633738 8.85259431,4.92646981 8.68024813,4.51183166 C8.50790194,4.0971935 8.60248297,3.61955417 8.91983881,3.30188567 C9.23719464,2.98421717 9.7147406,2.88916584 10.1295483,3.06110363 C10.5443559,3.23304142 10.8146225,3.63806105 10.8141824,4.08709091 C10.8141824,4.698 10.3178182,5.1954567 9.70690909,5.1954567 M9.70690909,3.51327273 C9.38939557,3.51327273 9.132,3.77066829 9.132,4.08818182 C9.132,4.40569534 9.38939557,4.66309091 9.70690909,4.66309091 C10.0244226,4.66309091 10.2818182,4.40569534 10.2818182,4.08818182 C10.2818182,3.77066829 10.0244226,3.51327273 9.70690909,3.51327273" id="形状"></path>
                </g>
            </g>
        </g>
    </g>
</svg>