<?xml version="1.0" encoding="UTF-8"?>
<svg width="26px" height="26px" viewBox="0 0 26 26" version="1.1" xmlns="http://www.w3.org/2000/svg" xmlns:xlink="http://www.w3.org/1999/xlink">
    <title>复制</title>
    <defs>
        <filter x="-0.8%" y="-7.6%" width="101.6%" height="114.1%" filterUnits="objectBoundingBox" id="filter-1">
            <feOffset dx="0" dy="1" in="SourceAlpha" result="shadowOffsetOuter1"></feOffset>
            <feGaussianBlur stdDeviation="1" in="shadowOffsetOuter1" result="shadowBlurOuter1"></feGaussianBlur>
            <feColorMatrix values="0 0 0 0 0   0 0 0 0 0   0 0 0 0 0  0 0 0 0.236478365 0" type="matrix" in="shadowBlurOuter1" result="shadowMatrixOuter1"></feColorMatrix>
            <feMerge>
                <feMergeNode in="shadowMatrixOuter1"></feMergeNode>
                <feMergeNode in="SourceGraphic"></feMergeNode>
            </feMerge>
        </filter>
    </defs>
    <g id="自定义表单" stroke="none" stroke-width="1" fill="none" fill-rule="evenodd">
        <g id="桌面端-HD" transform="translate(-1001.000000, -335.000000)" fill-rule="nonzero">
            <g id="编组-26" filter="url(#filter-1)" transform="translate(294.000000, 334.000000)">
                <g id="编组-25" transform="translate(706.000000, 0.000000)">
                    <g id="复制" transform="translate(7.000000, 7.000000)">
                        <polygon id="路径" fill-opacity="0" fill="#666666" points="5 7.515625 5.2175 7.515625 5.2175 7.734375 5 7.734375"></polygon>
                        <path d="M10.7789063,12.0895313 C10.81125,12.45125 10.6803125,12.8082813 10.4223438,13.0621875 C10.164375,13.3160938 9.806875,13.4396875 9.4484375,13.3989063 L1.94578125,13.3989063 C1.00546875,13.3989063 0.6053125,13.0967187 0.6053125,12.0895313 L0.6053125,4.59609375 C0.6053125,3.52859375 1.07546875,3.15578125 2.05578125,3.15578125 L2.4659375,3.15578125 L2.4659375,2.5515625 L1.465625,2.5515625 C0.661875,2.5678125 0.01578125,3.2228125 0.00515625,4.0321875 L0.00515625,12.4925 C0.00515625,13.32125 0.6725,13.993125 1.495625,13.993125 L9.8984375,13.993125 C10.7215625,13.993125 11.3889063,13.32125 11.3889063,12.4925 L11.3889063,11.525625 L10.77875,11.525625 L10.77875,12.0895313 L10.7789063,12.0895313 Z" id="路径" stroke="#33A398" stroke-width="0.3" fill="#33A398"></path>
                        <path d="M13.4239062,0.5934375 C13.04875,0.215625 12.5398438,0.0034375 12.0092188,0.0034375 L4.62671875,0.0034375 C3.52171875,0.0034375 2.6259375,0.9053125 2.6259375,2.0178125 L2.6259375,9.45078125 C2.6259375,10.5632812 3.52171875,11.4651562 4.62671875,11.4651562 L12.0092188,11.4651562 C13.1140625,11.4651562 14.0098437,10.5632812 14.0098437,9.45078125 L14.0098437,2.0178125 C14.0098437,1.48359375 13.7990625,0.97125 13.4239062,0.5934375 Z M13.4096875,9.19890625 C13.4239062,9.64296875 13.2542188,10.073125 12.94125,10.38625 C12.6282813,10.699375 12.2001563,10.8676562 11.7592188,10.850625 L4.876875,10.850625 C4.43671875,10.8678125 4.00953125,10.6992188 3.698125,10.3857813 C3.38671875,10.0721875 3.219375,9.64203125 3.23640625,9.19890625 L3.23640625,2.26953125 C3.23640625,1.355625 3.96921875,0.61328125 4.87703125,0.60765625 L11.759375,0.60765625 C12.2092187,0.56328125 12.6551563,0.7240625 12.9746875,1.04578125 C13.294375,1.36765625 13.4539063,1.8165625 13.41,2.269375 L13.41,9.19890625 L13.4096875,9.19890625 Z" id="形状" stroke="#33A398" stroke-width="0.3" fill="#33A398"></path>
                    </g>
                </g>
            </g>
        </g>
    </g>
</svg>