<?xml version="1.0" encoding="UTF-8"?>
<svg width="13px" height="12px" viewBox="0 0 13 12" version="1.1" xmlns="http://www.w3.org/2000/svg" xmlns:xlink="http://www.w3.org/1999/xlink">
    <title>日期选择</title>
    <g id="自定义表单" stroke="none" stroke-width="1" fill="none" fill-rule="evenodd">
        <g id="桌面端-HD" transform="translate(-224.000000, -390.000000)" fill="#666666" fill-rule="nonzero">
            <g id="编组-15" transform="translate(206.000000, 390.000000)">
                <g id="日期选择" transform="translate(18.000000, 0.000000)">
                    <path d="M6.73557692,5.31490385 C6.10096154,5.31490385 6.33894231,6.10673077 5.54711538,6.26538462 L5.30913462,6.34471154 C4.9125,6.42403846 4.83317308,6.42403846 4.83317308,6.74134615 C4.83317308,7.05865385 4.99182692,7.13798077 5.15048077,7.13798077 L6.10096154,7.13798077 L6.10096154,9.75288462 C6.10096154,10.1495192 6.18028846,10.3860577 6.57692308,10.3860577 C6.97355769,10.3860577 7.05288462,10.06875 7.05288462,9.75288462 L7.05288462,5.79086538 C7.05288462,5.39423077 6.89423077,5.31490385 6.73557692,5.31490385 Z M3.64615385,2.7 L3.80480769,2.7 C4.04278846,2.7 4.20144231,2.54134615 4.20144231,2.30336538 L4.20144231,0.402403846 C4.20144231,0.164423077 4.04278846,0.00576923077 3.80480769,0.00576923077 L3.64615385,0.00576923077 C3.40817308,0.00576923077 3.24951923,0.164423077 3.24951923,0.402403846 L3.24951923,2.38269231 C3.24951923,2.54134615 3.40817308,2.7 3.64615385,2.7 L3.64615385,2.7 Z M8.79663462,2.7 L8.95528846,2.7 C9.19326923,2.7 9.35192308,2.54134615 9.35192308,2.30336538 L9.35192308,0.402403846 C9.35192308,0.164423077 9.19326923,0.00576923077 8.95528846,0.00576923077 L8.79663462,0.00576923077 C8.55865385,0.00576923077 8.4,0.164423077 8.4,0.402403846 L8.4,2.38269231 C8.4,2.54134615 8.63798077,2.7 8.79663462,2.7 L8.79663462,2.7 Z" id="形状"></path>
                    <path d="M11.0149038,0.957692308 L9.98509615,0.957692308 L9.98509615,1.67019231 L11.0149038,1.67019231 C11.4908654,1.67019231 11.8860577,2.06682692 11.8860577,2.54134615 L11.8860577,3.33317308 L0.713942308,3.33317308 L0.713942308,2.54134615 C0.713942308,2.06538462 1.11057692,1.67019231 1.58509615,1.67019231 L2.61490385,1.67019231 L2.61490385,0.957692308 L1.66442308,0.957692308 C0.713942308,0.957692308 0,1.74951923 0,2.62211538 L0,10.3081731 C0,11.1793269 0.7125,11.9725962 1.66442308,11.9725962 L11.0942308,11.9725962 C11.9653846,11.9725962 12.7586538,11.2600962 12.7586538,10.3081731 L12.7586538,2.62067308 C12.6793269,1.74951923 11.9653846,0.957692308 11.0149038,0.957692308 Z M11.0149038,11.1793269 L1.66442308,11.1793269 C1.18846154,11.1793269 0.793269231,10.7826923 0.793269231,10.3081731 L0.793269231,4.12644231 L11.9653846,4.12644231 L11.9653846,10.2274038 C11.9653846,10.7826923 11.5701923,11.1793269 11.0149038,11.1793269 Z" id="形状"></path>
                    <polygon id="路径" points="4.75528846 0.957692308 7.92548077 0.957692308 7.92548077 1.67019231 4.75528846 1.67019231"></polygon>
                </g>
            </g>
        </g>
    </g>
</svg>