<?xml version="1.0" encoding="UTF-8"?>
<svg width="12px" height="12px" viewBox="0 0 12 12" version="1.1" xmlns="http://www.w3.org/2000/svg" xmlns:xlink="http://www.w3.org/1999/xlink">
    <title>日期范围选择器</title>
    <g id="自定义表单" stroke="none" stroke-width="1" fill="none" fill-rule="evenodd">
        <g id="桌面端-HD" transform="translate(-43.000000, -452.000000)" fill="#666666" fill-rule="nonzero">
            <g id="编组-18" transform="translate(25.000000, 452.000000)">
                <g id="日期范围选择器" transform="translate(18.000000, 0.000000)">
                    <path d="M3.627,2.04966666 C3.84033334,2.04966666 4.05366666,1.879 4.05366666,1.623 L4.05366666,0.428333337 C4.05366666,0.215 3.883,0.0016666625 3.627,0.0016666625 C3.41366666,0.0016666625 3.20033334,0.172333325 3.20033334,0.428333337 L3.20033334,1.66566666 C3.243,1.879 3.41366667,2.04966666 3.627,2.04966666 Z M5.675,2.04966666 C5.88833334,2.04966666 6.10166666,1.879 6.10166666,1.623 L6.10166666,0.428333337 C6.10166666,0.215 5.931,0.0016666625 5.675,0.0016666625 C5.419,0.0016666625 5.24833334,0.172333325 5.24833334,0.428333337 L5.24833334,1.66566666 C5.24833334,1.879 5.46166667,2.04966666 5.675,2.04966666 Z M7.723,2.04966666 C7.93633334,2.04966666 8.14966666,1.879 8.14966666,1.623 L8.14966666,0.428333337 C8.14966666,0.215 7.979,0.0016666625 7.723,0.0016666625 C7.50966666,0.0016666625 7.29633334,0.172333325 7.29633334,0.428333337 L7.29633334,1.66566666 C7.29633334,1.879 7.467,2.04966666 7.723,2.04966666 Z M10.539,8.70566666 C10.539,8.919 10.7096667,9.13233334 10.9656667,9.13233334 C11.179,9.13233334 11.3923333,8.96166668 11.3923333,8.70566666 C11.3923333,8.49233333 11.2216667,8.279 10.9656667,8.279 C10.7096667,8.32166666 10.539,8.49233334 10.539,8.70566666 Z" id="形状"></path>
                    <path d="M11.3496667,10.327 C11.3496667,10.1136667 11.179,9.943 10.923,9.943 C10.7096667,9.943 10.539,10.1136667 10.4963333,10.327 C10.4963333,10.7536667 10.1123333,11.1376667 9.68566666,11.1376667 L1.579,11.1376667 C1.15233334,11.1376667 0.768333338,10.7536667 0.768333338,10.327 L0.768333338,3.84166666 L10.4963333,3.84166666 L10.4963333,7.08433334 C10.4963333,7.29766668 10.667,7.511 10.923,7.511 C11.1363333,7.511 11.3496667,7.34033334 11.3496667,7.08433334 L11.3496667,2.22033334 C11.3496667,1.32433334 10.6243333,0.599 9.72833334,0.599 L9.387,0.599 L9.34433334,0.599 C9.131,0.599 8.91766668,0.769666662 8.91766666,1.02566666 C8.91766665,1.28166666 9.08833333,1.45233332 9.34433334,1.45233334 L9.72833334,1.45233334 C10.155,1.45233334 10.539,1.83633334 10.539,2.263 L10.539,3.07366666 L0.853666662,3.07366666 L0.811,3.07366666 L0.811,2.22033334 C0.811,1.79366667 1.195,1.40966667 1.62166666,1.40966666 L2.00566666,1.40966666 C2.219,1.40966666 2.43233333,1.239 2.43233334,0.983 C2.43233335,0.727 2.26166667,0.556333337 2.00566666,0.556333337 L1.62166666,0.556333337 C0.725666662,0.556333337 0.0003333375,1.28166666 0.0003333375,2.17766666 L0.0003333375,10.2843333 C0.0003333375,11.1803333 0.725666675,11.9056667 1.62166666,11.9056667 L9.72833334,11.9056667 C10.6243333,11.9483333 11.3496667,11.223 11.3496667,10.327 L11.3496667,10.327 Z" id="路径"></path>
                    <path d="M3.54166666,5.975 L2.68833334,5.975 C2.43233334,5.975 2.26166666,5.80433334 2.26166666,5.54833334 C2.26166666,5.29233334 2.43233333,5.12166666 2.68833334,5.12166666 L3.54166666,5.12166666 C3.79766666,5.12166666 3.96833334,5.29233333 3.96833334,5.54833334 C3.96833334,5.80433335 3.79766667,5.975 3.54166666,5.975 Z M8.66166666,5.975 L5.24833334,5.975 C4.99233334,5.975 4.82166666,5.80433334 4.82166666,5.54833334 C4.82166666,5.29233334 4.99233332,5.12166666 5.24833334,5.12166666 L8.66166666,5.12166666 C8.91766666,5.12166666 9.08833334,5.29233333 9.08833334,5.54833334 C9.08833334,5.80433335 8.91766667,5.975 8.66166666,5.975 Z M8.66166666,7.68166666 L2.68833334,7.68166666 C2.43233334,7.68166666 2.26166666,7.511 2.26166666,7.255 C2.26166666,6.999 2.43233333,6.82833334 2.68833334,6.82833334 L8.66166666,6.82833334 C8.91766666,6.82833334 9.08833334,6.999 9.08833334,7.255 C9.08833334,7.511 8.91766667,7.68166666 8.66166666,7.68166666 Z M6.10166666,9.38833334 L2.68833334,9.38833334 C2.43233334,9.38833334 2.26166666,9.21766668 2.26166666,8.96166666 C2.26166666,8.70566665 2.43233333,8.535 2.68833334,8.535 L6.10166666,8.535 C6.35766666,8.535 6.52833334,8.70566666 6.52833334,8.96166666 C6.52833334,9.21766666 6.35766667,9.38833334 6.10166666,9.38833334 Z M8.66166666,9.38833334 L7.80833334,9.38833334 C7.55233334,9.38833334 7.38166666,9.21766668 7.38166666,8.96166666 C7.38166666,8.70566665 7.55233332,8.535 7.80833334,8.535 L8.66166666,8.535 C8.91766666,8.535 9.08833334,8.70566666 9.08833334,8.96166666 C9.08833334,9.21766666 8.91766667,9.38833334 8.66166666,9.38833334 Z" id="形状"></path>
                </g>
            </g>
        </g>
    </g>
</svg>