<?xml version="1.0" encoding="UTF-8"?>
<svg width="24px" height="25px" viewBox="0 0 24 25" version="1.1" xmlns="http://www.w3.org/2000/svg" xmlns:xlink="http://www.w3.org/1999/xlink">
    <title>删 除</title>
    <defs>
        <filter x="-0.8%" y="-7.6%" width="101.6%" height="114.1%" filterUnits="objectBoundingBox" id="filter-1">
            <feOffset dx="0" dy="1" in="SourceAlpha" result="shadowOffsetOuter1"></feOffset>
            <feGaussianBlur stdDeviation="1" in="shadowOffsetOuter1" result="shadowBlurOuter1"></feGaussianBlur>
            <feColorMatrix values="0 0 0 0 0   0 0 0 0 0   0 0 0 0 0  0 0 0 0.236478365 0" type="matrix" in="shadowBlurOuter1" result="shadowMatrixOuter1"></feColorMatrix>
            <feMerge>
                <feMergeNode in="shadowMatrixOuter1"></feMergeNode>
                <feMergeNode in="SourceGraphic"></feMergeNode>
            </feMerge>
        </filter>
    </defs>
    <g id="自定义表单" stroke="none" stroke-width="1" fill="none" fill-rule="evenodd">
        <g id="桌面端-HD" transform="translate(-1042.000000, -335.000000)" fill="#FF192D" fill-rule="nonzero" stroke="#FF192D" stroke-width="0.2">
            <g id="编组-26" filter="url(#filter-1)" transform="translate(294.000000, 334.000000)">
                <g id="编组-24" transform="translate(746.000000, 0.000000)">
                    <g id="删-除" transform="translate(8.000000, 7.000000)">
                        <path d="M12.3980899,2.37065976 L0.398176803,2.37065976 C0.181178997,2.37061928 0.00528898104,2.19469646 0.00528898104,1.97769865 C0.00528898104,1.76070084 0.181178997,1.58477801 0.398176803,1.58473753 L12.3980899,1.58473753 C12.6150877,1.58477801 12.7909777,1.76070084 12.7909777,1.97769865 C12.7909777,2.19469646 12.6150877,2.37061928 12.3980899,2.37065976 L12.3980899,2.37065976 Z M8.52687548,0.798207006 L4.26878293,0.798207006 C4.16536883,0.797403488 4.06650986,0.75555017 3.99395546,0.68185498 C3.92140106,0.608159791 3.881095,0.508659951 3.88189284,0.4052459 C3.88089263,0.189698392 4.05445614,0.0139585343 4.26999952,0.0122847813 L8.52809207,0.0122847813 C8.74329998,0.0142919267 8.91632047,0.190032868 8.91498216,0.4052459 C8.91578,0.508659951 8.87547394,0.608159791 8.80291954,0.68185498 C8.73036514,0.75555017 8.63150617,0.797403488 8.52809207,0.798207006 L8.52687548,0.798207006 Z M4.65748594,11.0176291 L4.65748594,4.33607362 C4.65185693,4.19408616 4.72439761,4.06040767 4.84650982,3.98773903 C4.96862203,3.9150704 5.12071441,3.9150704 5.24282662,3.98773903 C5.36493883,4.06040767 5.43747951,4.19408616 5.4318505,4.33607362 L5.4318505,11.0176291 C5.43747951,11.1596166 5.36493883,11.2932951 5.24282662,11.3659637 C5.12071441,11.4386323 4.96862203,11.4386323 4.84650982,11.3659637 C4.72439761,11.2932951 4.65185693,11.1596166 4.65748594,11.0176291 L4.65748594,11.0176291 Z M7.3674577,11.0176291 L7.3674577,4.33607362 C7.36182868,4.19408616 7.43436936,4.06040767 7.55648158,3.98773903 C7.67859379,3.9150704 7.83068616,3.9150704 7.95279838,3.98773903 C8.07491059,4.06040767 8.14745127,4.19408616 8.14182225,4.33607362 L8.14182225,11.0176291 C8.14745127,11.1596166 8.07491059,11.2932951 7.95279838,11.3659637 C7.83068616,11.4386323 7.67859379,11.4386323 7.55648158,11.3659637 C7.43436936,11.2932951 7.36182868,11.1596166 7.3674577,11.0176291 Z M1.94690588,3.5495431 C2.16211379,3.55155024 2.33513429,3.72729117 2.33378402,3.94250421 L2.33378402,12.1971208 C2.33108498,12.6277821 2.67749446,12.9793619 3.10814856,12.983043 L9.68811814,12.983043 C10.1189136,12.9796959 10.4655177,12.6279186 10.4624827,12.1971208 L10.4624827,3.94311251 C10.4568536,3.80112502 10.5293943,3.66744646 10.6515065,3.59477779 C10.7736188,3.52210911 10.9257112,3.52210911 11.0478234,3.59477779 C11.1699357,3.66744646 11.2424763,3.80112502 11.2368472,3.94311251 L11.2368472,12.5900819 C11.2415686,13.236229 10.7217494,13.7639448 10.0756046,13.7689652 L2.72127044,13.7689652 C2.07512556,13.7639448 1.55530644,13.236229 1.55999586,12.5900819 L1.55999586,3.94311251 C1.55867749,3.72789948 1.73169798,3.55215854 1.94690588,3.55015139 L1.94690588,3.5495431 Z" id="形状"></path>
                    </g>
                </g>
            </g>
        </g>
    </g>
</svg>