<?xml version="1.0" standalone="no"?><!DOCTYPE svg PUBLIC "-//W3C//DTD SVG 1.1//EN" "http://www.w3.org/Graphics/SVG/1.1/DTD/svg11.dtd"><svg t="1600069688010" class="icon" viewBox="0 0 1024 1024" version="1.1" xmlns="http://www.w3.org/2000/svg" p-id="10441" xmlns:xlink="http://www.w3.org/1999/xlink" width="16" height="16"><defs><style type="text/css"></style></defs><path d="M167.740952 1024C75.190857 1024 0 944.030476 0 845.677714V178.322286C0 79.969524 80.408381 0 179.2 0h592.164571a178.614857 178.614857 0 0 1 178.517334 178.322286v37.741714l2.681905 1.999238C997.278476 251.708952 1024 306.078476 1024 363.568762v482.108952C1024 944.030476 948.711619 1024 856.259048 1024H167.740952z m11.459048-963.34019a118.247619 118.247619 0 0 0-118.54019 117.662476v667.355428c0 64.853333 48.030476 117.662476 107.03238 117.662476H856.259048c59.050667 0 107.081143-52.760381 107.081142-117.662476V363.568762c0-64.853333-48.030476-117.662476-107.081142-117.662476H252.586667a30.329905 30.329905 0 0 1 0-60.65981h603.672381c8.387048 0 16.432762 1.316571 24.966095 2.730667l7.801905 1.267809 0.195047-7.899428v-3.023238a117.906286 117.906286 0 0 0-117.857524-117.662476H179.2z" p-id="10442"></path><path d="M463.238095 828.952381c-17.066667 0-30.866286-13.116952-30.866285-29.257143v-42.276571H274.67581c-17.066667 0-30.866286-13.116952-30.866286-29.257143 0-16.091429 13.848381-29.257143 30.866286-29.257143h157.696V614.4H274.67581c-17.066667 0-30.866286-13.116952-30.866286-29.257143 0-16.14019 13.848381-29.257143 30.866286-29.257143h157.696v-37.351619l-4.534858-1.511619a107.617524 107.617524 0 0 1-30.817523-16.188952L255.414857 393.411048a28.379429 28.379429 0 0 1-4.827428-41.155048A31.50019 31.50019 0 0 1 274.773333 341.333333a31.695238 31.695238 0 0 1 19.212191 6.339048l141.604571 107.422476a45.787429 45.787429 0 0 0 27.648 9.216 45.738667 45.738667 0 0 0 27.648-9.216l141.604572-107.324952a32.426667 32.426667 0 0 1 43.398095 4.534857 28.330667 28.330667 0 0 1-4.876191 41.155048l-141.507047 107.422476c-9.020952 6.826667-19.407238 12.239238-30.866286 16.091428l-4.534857 1.560381v37.351619h157.696c17.017905 0 30.866286 13.116952 30.866286 29.257143 0 16.091429-13.848381 29.257143-30.866286 29.257143h-157.696v84.504381h157.696c17.017905 0 30.866286 13.165714 30.866286 29.257143 0 16.14019-13.848381 29.257143-30.866286 29.257143h-157.696v42.276571c0 16.14019-13.848381 29.257143-30.866286 29.257143z" p-id="10443"></path></svg>