<?xml version="1.0" encoding="UTF-8"?>
<svg width="12px" height="12px" viewBox="0 0 12 12" version="1.1" xmlns="http://www.w3.org/2000/svg" xmlns:xlink="http://www.w3.org/1999/xlink">
    <title>单行文本</title>
    <g id="自定义表单" stroke="none" stroke-width="1" fill="none" fill-rule="evenodd">
        <g id="桌面端-HD" transform="translate(-43.000000, -92.000000)" fill="#666666" fill-rule="nonzero">
            <g id="编组-2" transform="translate(25.000000, 92.000000)">
                <g id="单行文本" transform="translate(18.000000, 0.000000)">
                    <path d="M11.623405,-4.19548159e-17 C11.6058562,-4.19548159e-17 11.5886238,0.00130033594 11.5717193,0.00363158203 L6.05315582,0.00363158203 C6.03603065,0.00123999126 6.01876153,-4.19548159e-17 6.0014702,-4.19548159e-17 C5.98392145,-4.19548159e-17 5.96668902,0.00130033594 5.94978459,0.00363158203 L0.431244492,0.00363158203 C0.414119328,0.00123999126 0.396850209,-4.19548159e-17 0.379558875,-4.19548159e-17 C0.172523566,-4.19548159e-17 0.00468590625,0.16783766 0.00468590625,0.374872969 L0.00468590625,1.87106127 C0.00468590625,2.07809658 0.172523566,2.24593424 0.379558875,2.24593424 C0.586594184,2.24593424 0.754431844,2.07809658 0.754431844,1.87106127 L0.754431844,0.75337752 L5.62660895,0.75337752 L5.62660895,11.2502541 L4.87830394,11.2502541 C4.67126863,11.2502541 4.50343097,11.4180917 4.50343097,11.625127 C4.50343097,11.8321623 4.67126863,12 4.87830394,12 L7.12082917,12 C7.32786448,12 7.49570214,11.8321623 7.49570214,11.625127 C7.49570214,11.4180917 7.32786448,11.2502541 7.12082917,11.2502541 L6.37635489,11.2502541 L6.37635489,0.75337752 L11.248532,0.75337752 L11.248532,1.87106127 C11.248532,2.07809658 11.4163697,2.24593424 11.623405,2.24593424 C11.8304403,2.24593424 11.9982779,2.07809658 11.9982779,1.87106127 L11.9982779,0.374872969 C11.9982779,0.16783766 11.8304403,-4.19548159e-17 11.623405,-4.19548159e-17 Z" id="路径"></path>
                </g>
            </g>
        </g>
    </g>
</svg>