<?xml version="1.0" encoding="UTF-8"?>
<svg width="13px" height="13px" viewBox="0 0 13 13" version="1.1" xmlns="http://www.w3.org/2000/svg" xmlns:xlink="http://www.w3.org/1999/xlink">
    <title>计数器</title>
    <g id="自定义表单" stroke="none" stroke-width="1" fill="none" fill-rule="evenodd">
        <g id="桌面端-HD" transform="translate(-43.000000, -154.000000)" fill="#666666" fill-rule="nonzero">
            <g id="编组-6" transform="translate(31.000000, 154.000000)">
                <g id="计数器" transform="translate(12.000000, 0.000000)">
                    <path d="M3.14171875,4.036875 L3.14171875,8.77578125 L2.5978125,8.77578125 L2.5978125,4.6996875 C2.30546875,5.0009375 1.93359375,5.2178125 1.4828125,5.3503125 L1.4828125,4.80640625 C1.69015625,4.74859375 1.91109375,4.65140625 2.14640625,4.5140625 C2.36328125,4.38140625 2.55296875,4.22171875 2.7175,4.03609375 L3.14171875,4.03609375 L3.14171875,4.036875 L3.14171875,4.036875 Z M5.968125,3.945 C6.40671875,3.945 6.76703125,4.07078125 7.05046875,4.32296875 C7.33328125,4.579375 7.4746875,4.91375 7.4746875,5.32515625 C7.4746875,5.7325 7.3203125,6.10359375 7.0103125,6.44015625 C6.82875,6.63046875 6.50171875,6.88484375 6.0278125,7.20296875 C5.42609375,7.60609375 5.08140625,7.96859375 4.99296875,8.29140625 L7.48140625,8.29140625 L7.48140625,8.77609375 L4.32265625,8.77609375 C4.32265625,8.33828125 4.4790625,7.9465625 4.79390625,7.60125 C4.9971875,7.37140625 5.33984375,7.09 5.8225,6.758125 C6.1984375,6.488125 6.4459375,6.29171875 6.565625,6.16796875 C6.8090625,5.9028125 6.93078125,5.61921875 6.93078125,5.318125 C6.93078125,5.03046875 6.844375,4.806875 6.67234375,4.6478125 C6.4990625,4.48875 6.25765625,4.40921875 5.94828125,4.40921875 C5.61640625,4.40921875 5.36625,4.519375 5.19828125,4.7409375 C5.00796875,4.9578125 4.910625,5.27390625 4.9059375,5.69 L4.36203125,5.69 C4.36203125,5.163125 4.5103125,4.7409375 4.80671875,4.42203125 C5.09921875,4.1040625 5.48671875,3.945 5.968125,3.945 L5.968125,3.945 Z M9.71703125,3.945 C10.1773438,3.945 10.5445313,4.05984375 10.8184375,4.2896875 C11.093125,4.52421875 11.2304688,4.8384375 11.2304688,5.23203125 C11.2304688,5.7678125 10.9714062,6.12140625 10.4532812,6.2940625 C10.7367187,6.3825 10.9495312,6.5178125 11.0910938,6.69859375 C11.2501562,6.88484375 11.3296875,7.11671875 11.3296875,7.39546875 C11.3296875,7.82515625 11.179375,8.17671875 10.8782813,8.450625 C10.5729688,8.729375 10.1753125,8.86875 9.68375,8.86875 C9.241875,8.86875 8.8746875,8.75390625 8.58234375,8.5240625 C8.24578125,8.2453125 8.058125,7.84015625 8.01796875,7.30984375 L8.56875,7.30984375 C8.58234375,7.68109375 8.70609375,7.96453125 8.940625,8.1590625 C9.14453125,8.3221875 9.39203125,8.40453125 9.68375,8.40453125 C10.0203125,8.40453125 10.2921875,8.30734375 10.4996875,8.1121875 C10.69,7.92171875 10.7853125,7.690625 10.7853125,7.4159375 C10.7853125,7.13234375 10.6928125,6.91140625 10.5065625,6.75234375 C10.3257812,6.59734375 10.06875,6.51984375 9.736875,6.51984375 L9.35203125,6.51984375 L9.35203125,6.09359375 L9.7171875,6.09359375 C10.03125,6.09359375 10.2726562,6.0228125 10.440625,5.88140625 C10.6085937,5.73515625 10.6921875,5.52921875 10.6921875,5.2640625 C10.6921875,5.00296875 10.610625,4.79703125 10.4473437,4.64671875 C10.27875,4.49171875 10.038125,4.41484375 9.72390625,4.41484375 C9.4009375,4.41484375 9.1528125,4.4984375 8.98015625,4.66640625 C8.799375,4.835 8.69046875,5.08046875 8.65515625,5.4034375 L8.118125,5.4034375 C8.1575,4.9478125 8.32546875,4.58953125 8.621875,4.3284375 C8.8965625,4.07140625 9.2609375,3.94359375 9.7171875,3.94359375 L9.7171875,3.945 L9.71703125,3.945 Z" id="形状"></path>
                    <path d="M10.8151562,0.71734375 C11.5207812,0.72046875 12.091875,1.29171875 12.0951562,1.99734375 L12.0951562,10.8151562 C12.0920312,11.5207812 11.5207812,12.091875 10.8151562,12.0951562 L1.99734375,12.0951562 C1.29171875,12.0920312 0.720625,11.5207812 0.71734375,10.8151562 L0.71734375,1.99734375 C0.72046875,1.29171875 1.29171875,0.720625 1.99734375,0.71734375 L10.8151563,0.71734375 M10.8151562,0.00625 L1.99734375,0.00625 C0.9021875,0.00625 0.00625,0.9021875 0.00625,1.99734375 L0.00625,10.8151562 C0.00625,11.9101562 0.9021875,12.80625 1.99734375,12.80625 L10.8151562,12.80625 C11.9101562,12.80625 12.80625,11.9103125 12.80625,10.8151562 L12.80625,1.99734375 C12.80625,0.9021875 11.9103125,0.00625 10.8151562,0.00625 Z" id="形状"></path>
                </g>
            </g>
        </g>
    </g>
</svg>