<?xml version="1.0" encoding="UTF-8"?>
<svg width="10px" height="12px" viewBox="0 0 10 12" version="1.1" xmlns="http://www.w3.org/2000/svg" xmlns:xlink="http://www.w3.org/1999/xlink">
    <title>密码 (4)</title>
    <g id="自定义表单" stroke="none" stroke-width="1" fill="none" fill-rule="evenodd">
        <g id="桌面端-HD" transform="translate(-225.000000, -92.000000)" fill="#666666" fill-rule="nonzero">
            <g id="编组-4" transform="translate(218.000000, 92.000000)">
                <g id="密码-(4)" transform="translate(7.000000, 0.000000)">
                    <path d="M8.19611203,12 L1.64763797,12 C0.74461808,11.9972245 0.013287502,11.2658294 0.0105916641,10.3628093 L0.0105916641,6.54876287 C0.0131289881,5.64562995 0.744505755,4.91405963 1.64763797,4.91128334 L1.64763797,3.27423703 C1.64763797,1.4654857 3.11355691,0 4.921875,0 C6.73019309,0 8.19611203,1.4654857 8.19611203,3.27423703 L8.19611203,4.91128334 C9.09924425,4.91405963 9.83062101,5.64562995 9.83315834,6.54876287 L9.83315834,10.3628093 C9.8304625,11.2658294 9.09913192,11.9972245 8.19611203,12 Z M7.65038179,3.27423703 C7.65038179,1.76730529 6.42880673,0.545730234 4.921875,0.545730234 C3.41494327,0.545730234 2.19336821,1.76730529 2.19336821,3.27423703 L2.19336821,4.91128334 L7.65038179,4.91128334 L7.65038179,3.27423703 Z M9.28742809,6.54876287 C9.18538764,5.99373369 8.7511277,5.55941629 8.19611203,5.4573024 L1.64763797,5.4573024 C1.0926223,5.55941629 0.658362355,5.99373369 0.55632191,6.54876287 L0.55632191,10.3682969 C0.658362351,10.9233261 1.09262229,11.3576435 1.64763797,11.4597574 L8.19611203,11.4597574 C8.75112771,11.3576435 9.18538765,10.9233261 9.28742809,10.3682969 L9.28742809,6.54876287 Z M6.83243627,8.73153942 L3.01189137,8.73153942 C2.86363759,8.72812846 2.74523201,8.60696731 2.74523201,8.4586743 C2.74523201,8.3103813 2.86363759,8.18922015 3.01189137,8.18580919 L6.83185863,8.18580919 C6.98011241,8.18922015 7.09851799,8.3103813 7.09851799,8.4586743 C7.09851799,8.60696731 6.98011241,8.72812846 6.83185863,8.73153942 L6.83243627,8.73153942 Z" id="形状"></path>
                </g>
            </g>
        </g>
    </g>
</svg>