<?xml version="1.0" encoding="UTF-8"?>
<svg width="12px" height="12px" viewBox="0 0 12 12" version="1.1" xmlns="http://www.w3.org/2000/svg" xmlns:xlink="http://www.w3.org/1999/xlink">
    <title>预览</title>
    <g id="自定义表单" stroke="none" stroke-width="1" fill="none" fill-rule="evenodd">
        <g id="桌面端-HD" transform="translate(-905.000000, -15.000000)" fill="#999999" fill-rule="nonzero">
            <g id="预览" transform="translate(905.000000, 15.000000)">
                <path d="M10.7142857,0 L1.28571429,0 C0.575633893,0 0,0.575633893 0,1.28571429 L0,10.7142857 C0,11.4243661 0.575633893,12 1.28571429,12 L4.71428571,12 L4.71428571,11.1428571 L1.28571429,11.1428571 C1.04902082,11.1428571 0.857142857,10.9509792 0.857142857,10.7142857 L0.857142857,1.28571429 C0.857142857,1.04902082 1.04902082,0.857142857 1.28571429,0.857142857 L10.7142857,0.857142857 C10.9509792,0.857142857 11.1428571,1.04902082 11.1428571,1.28571429 L11.1428571,4.71428571 L12,4.71428571 L12,1.28571429 C12,0.575633893 11.4243661,0 10.7142857,0 Z" id="路径"></path>
                <path d="M9.76285714,9.15428571 C10.2752038,8.51757757 10.5562503,7.72581206 10.56,6.90857143 C10.56,4.89667698 8.9290373,3.26571429 6.91714286,3.26571429 C4.90524841,3.26571429 3.27428571,4.89667698 3.27428571,6.90857143 C3.27428571,8.92046587 4.90524841,10.5514286 6.91714286,10.5514286 C7.73438349,10.5476789 8.526149,10.2666323 9.16285714,9.75428571 L11.1428571,11.7857143 C11.3118529,11.9326254 11.5654621,11.9246718 11.7249201,11.7674597 C11.884378,11.6102477 11.895928,11.3567768 11.7514286,11.1857143 L9.76285714,9.15428571 Z M6.91714286,9.69429892 C5.37863534,9.69429892 4.13142857,8.44707895 4.13142857,6.90857143 C4.13142857,5.37006391 5.37863534,4.12285714 6.91714286,4.12285714 C8.45565037,4.12285714 9.70285714,5.37006391 9.70285714,6.90857143 C9.70285714,7.64887629 9.40819027,8.35873569 8.8839122,8.88140555 C8.35963412,9.40407541 7.64887278,9.69656358 6.90857143,9.69429892 L6.91714286,9.69429892 Z" id="形状"></path>
            </g>
        </g>
    </g>
</svg>