<?xml version="1.0" encoding="UTF-8"?>
<svg width="12px" height="12px" viewBox="0 0 12 12" version="1.1" xmlns="http://www.w3.org/2000/svg" xmlns:xlink="http://www.w3.org/1999/xlink">
    <title>单选框组</title>
    <g id="自定义表单" stroke="none" stroke-width="1" fill="none" fill-rule="evenodd">
        <g id="桌面端-HD" transform="translate(-224.000000, -266.000000)" fill="#666666" fill-rule="nonzero">
            <g id="编组-9" transform="translate(206.000000, 266.000000)">
                <g id="单选框组" transform="translate(18.000000, 0.000000)">
                    <path d="M2.94875935,5.78529 C2.94982022,7.34592888 4.21564005,8.6103164 5.77627913,8.60961001 C7.33691821,8.60890302 8.60159244,7.34336963 8.60123935,5.78273043 C8.60088611,4.22209124 7.33563924,2.95713 5.775,2.95713 C5.02510177,2.95713 4.30594544,3.25515709 3.7758674,3.78559524 C3.24578936,4.31603339 2.94825056,5.03539194 2.94875935,5.78529 L2.94875935,5.78529 Z" id="路径"></path>
                    <path d="M5.775,0.01761 C2.59383984,0.01761 0.015,2.59644984 0.015,5.77761 C0.015,8.95877016 2.59383984,11.53761 5.775,11.53761 C8.95616016,11.53761 11.535,8.95877016 11.535,5.77761 C11.522372,2.60169525 8.95091475,0.0302380412 5.775,0.01761 L5.775,0.01761 Z M5.775,10.7984104 C3.74643112,10.7991866 1.91717638,9.57780389 1.14033848,7.70387348 C0.363500582,5.82994307 0.792092066,3.67257012 2.22623232,2.23788059 C3.66037258,0.80319107 5.81758126,0.373773512 7.69180899,1.14989378 C9.56603673,1.92601406 10.78812,3.75480097 10.78812,5.78337 C10.7807402,8.54928863 8.5409156,10.789971 5.775,10.7984104 L5.775,10.7984104 Z" id="形状"></path>
                </g>
            </g>
        </g>
    </g>
</svg>