<?xml version="1.0" encoding="UTF-8"?>
<svg width="13px" height="12px" viewBox="0 0 13 12" version="1.1" xmlns="http://www.w3.org/2000/svg" xmlns:xlink="http://www.w3.org/1999/xlink">
    <title>评分</title>
    <g id="自定义表单" stroke="none" stroke-width="1" fill="none" fill-rule="evenodd">
        <g id="桌面端-HD" transform="translate(-133.000000, -452.000000)" fill="#666666" fill-rule="nonzero">
            <g id="编组-17" transform="translate(127.000000, 452.000000)">
                <g id="评分" transform="translate(6.000000, 0.000000)">
                    <path d="M11.7298611,3.93679167 L8.72976389,3.50086111 C8.54877005,3.47455884 8.39230689,3.36088219 8.31136111,3.196875 L6.96968056,0.478319444 C6.66393056,-0.141194444 5.78051389,-0.141194444 5.47476389,0.478319444 L4.13308333,3.196875 C4.05213944,3.36088379 3.89567532,3.47456114 3.71468056,3.50086111 L0.714583333,3.93680556 C0.0309027778,4.03615278 -0.242083333,4.87631944 0.252625,5.35855556 L2.42351389,7.47465278 C2.55448416,7.60231541 2.61424959,7.78624979 2.58333333,7.96651389 L2.07084722,10.9544861 C1.95405556,11.6354028 2.66875,12.1546528 3.28025,11.8331806 L5.963625,10.4224444 C6.12550874,10.3373334 6.31890793,10.3373334 6.48079167,10.4224444 L9.16416667,11.8331806 C9.18033223,11.8416859 9.19675673,11.8496897 9.21341667,11.8571806 C9.73743056,12.0926944 10.1063889,11.3157778 9.59693056,11.0502639 L9.26034722,10.8748472 C9.24948969,10.8720925 9.23899565,10.8680646 9.22908333,10.8628472 L8.28616667,10.367125 L7.99673611,10.2162778 C7.98731365,10.2113182 7.97807162,10.2060232 7.96902778,10.2004028 L6.48079167,9.41798611 C6.31890793,9.3328751 6.12550874,9.3328751 5.963625,9.41798611 L3.21531944,10.8628472 C3.11340278,10.9164306 2.99429167,10.8298889 3.01375,10.7164028 L3.53863889,7.656125 C3.56955515,7.4758609 3.50978972,7.29192652 3.37881944,7.16426389 L1.15541667,4.99694444 C1.07295833,4.91656944 1.11845833,4.77654167 1.23240278,4.75998611 L4.30509722,4.31348611 C4.48609106,4.28718384 4.64255422,4.17350719 4.7235,4.0095 L6.09765278,1.22518056 C6.14861111,1.12193056 6.29584722,1.12193056 6.34680556,1.22518056 L7.72095833,4.00951389 C7.80190222,4.17352267 7.95836634,4.28720002 8.13936111,4.3135 L11.2120556,4.75998611 C11.326,4.77654167 11.3715,4.91656944 11.2890417,4.99694444 L9.06559722,7.16423611 C8.93462695,7.29189874 8.87486152,7.47583312 8.90577778,7.65609722 L9.20940278,9.426375 C9.25506944,9.69265278 9.48568056,9.88747222 9.75586111,9.88801389 C9.98473611,9.88847222 10.1586111,9.68227778 10.1195139,9.45676389 L9.86111111,7.9665 C9.83019225,7.7862399 9.88995841,7.60230848 10.0209306,7.47465278 L12.1918194,5.35855556 C12.6865278,4.87630556 12.4135417,4.03613889 11.7298611,3.93679167 Z" id="路径"></path>
                </g>
            </g>
        </g>
    </g>
</svg>