<?xml version="1.0" standalone="no"?><!DOCTYPE svg PUBLIC "-//W3C//DTD SVG 1.1//EN" "http://www.w3.org/Graphics/SVG/1.1/DTD/svg11.dtd"><svg t="1599442195788" class="icon" viewBox="0 0 1030 1024" version="1.1" xmlns="http://www.w3.org/2000/svg" p-id="6509" xmlns:xlink="http://www.w3.org/1999/xlink" width="32.1875" height="32"><defs><style type="text/css"></style></defs><path d="M995.837 751.198l-11.13 0L984.707 150.08l11.13 0c18.45 0 33.4-14.955 33.4-33.395 0-18.445-14.95-33.395-33.4-33.395L38.515 83.29C20.07 83.29 5.12 98.24 5.12 116.685c0 18.44 14.95 33.395 33.395 33.395l11.132 0 0 601.118L38.515 751.198c-18.445 0-33.395 14.945-33.395 33.39s14.95 33.39 33.395 33.39l434.134 0 0 66.8-77.92 0c-18.445 0-33.395 14.945-33.395 33.39s14.95 33.39 33.395 33.39l222.629 0c18.45 0 33.4-14.945 33.4-33.39s-14.95-33.39-33.4-33.39l-77.92 0 0-66.8 456.399 0c18.45 0 33.4-14.945 33.4-33.39S1014.287 751.198 995.837 751.198zM116.435 751.198 116.435 150.08l801.483 0 0 601.118L116.435 751.198 116.435 751.198zM762.528 300.849 557.874 505.504l-110.205-110.2c-8.692-8.692-22.787-8.692-31.482 0l-173.172 173.17c-8.692 8.7-8.692 22.795 0 31.48 8.7 8.7 22.795 8.7 31.487 0l157.427-157.42 110.2 110.205c8.695 8.685 22.79 8.685 31.485 0l220.394-220.404c8.69-8.695 8.69-22.79 0-31.487C785.318 292.157 771.218 292.157 762.528 300.849z" p-id="6510"></path></svg>