<?xml version="1.0" standalone="no"?><!DOCTYPE svg PUBLIC "-//W3C//DTD SVG 1.1//EN" "http://www.w3.org/Graphics/SVG/1.1/DTD/svg11.dtd"><svg t="1599442229252" class="icon" viewBox="0 0 1097 1024" version="1.1" xmlns="http://www.w3.org/2000/svg" p-id="7926" xmlns:xlink="http://www.w3.org/1999/xlink" width="34.28125" height="32"><defs><style type="text/css"></style></defs><path d="M709.736839 701.907752a150.559363 150.559363 0 1 1 150.559363-150.559364 150.559363 150.559363 0 0 1-150.559363 150.559364z m0-250.530781a99.971417 99.971417 0 1 0 99.971417 99.971417A99.971417 99.971417 0 0 0 709.736839 451.67809zM1036.751776 1023.803671a27.100685 27.100685 0 0 1-25.896211-19.271599c-3.011187-8.732443-71.064019-218.612196-301.118726-218.612195h-5.420137a298.408658 298.408658 0 0 0-293.590759 210.783108 27.100685 27.100685 0 0 1-52.695777-13.851461 358.331285 358.331285 0 0 1 345.383179-250.530781h6.323494c271.006854 0 353.513385 254.445324 354.416741 256.854274a27.401804 27.401804 0 0 1-18.067124 34.026416 24.691736 24.691736 0 0 1-9.33468 0.602238z" p-id="7927"></path><path d="M261.069936 1010.554447H132.49224a132.793358 132.793358 0 0 1-132.49224-132.49224V132.49224A132.49224 132.49224 0 0 1 132.49224 0H963.579925a132.793358 132.793358 0 0 1 132.49224 132.49224V692.573071h-60.223745V132.49224A72.569613 72.569613 0 0 0 963.579925 60.223745H132.49224A72.569613 72.569613 0 0 0 60.223745 132.49224v745.569967a72.569613 72.569613 0 0 0 72.268495 72.268494h128.577696z" p-id="7928"></path><path d="M18.97048 239.690506h1065.358055v60.223746H18.97048zM763.034853 115.629591h65.945001v65.945001h-65.945001zM893.720381 115.629591h65.945001v65.945001h-65.945001z" p-id="7929"></path></svg>