<?xml version="1.0" encoding="UTF-8"?>
<svg width="12px" height="12px" viewBox="0 0 12 12" version="1.1" xmlns="http://www.w3.org/2000/svg" xmlns:xlink="http://www.w3.org/1999/xlink">
    <title>编辑器</title>
    <g id="自定义表单" stroke="none" stroke-width="1" fill="none" fill-rule="evenodd">
        <g id="桌面端-HD" transform="translate(-133.000000, -154.000000)" fill="#666666" fill-rule="nonzero">
            <g id="编组-5" transform="translate(121.000000, 154.000000)">
                <g id="编辑器" transform="translate(12.000000, 0.000000)">
                    <path d="M6.59485714,6.00857143 L11.8405714,0.762857143 C11.9488229,0.654452555 11.9910182,0.496531112 11.9512628,0.348580292 C11.9115075,0.200629472 11.7958411,0.0851265242 11.6478343,0.0455802918 C11.4998274,0.00603405929 11.3419658,0.0484525553 11.2337143,0.156857143 L5.988,5.40257143 C5.87974853,5.51097602 5.8375532,5.66889746 5.87730859,5.81684828 C5.91706398,5.9647991 6.0327303,6.08030205 6.18073716,6.11984828 C6.32874402,6.15939451 6.48660567,6.11697602 6.59485714,6.00857143 L6.59485714,6.00857143 Z" id="路径"></path>
                    <path d="M11.1428571,11.1428571 L0.857142857,11.1428571 L0.857142857,0.857142857 L7.28571429,0.857142857 C7.52240775,0.857142857 7.71428571,0.665264893 7.71428571,0.428571429 C7.71428571,0.191877964 7.52240775,0 7.28571429,0 L0.428571429,0 C0.191877964,0 0,0.191877964 0,0.428571429 L0,11.5714286 C0,11.808122 0.191877964,12 0.428571429,12 L11.5714286,12 C11.808122,12 12,11.808122 12,11.5714286 L12,4.71428571 C12,4.47759225 11.808122,4.28571429 11.5714286,4.28571429 C11.3347351,4.28571429 11.1428571,4.47759225 11.1428571,4.71428571 L11.1428571,11.1428571 Z" id="路径"></path>
                </g>
            </g>
        </g>
    </g>
</svg>