<?xml version="1.0" encoding="UTF-8"?>
<svg width="13px" height="12px" viewBox="0 0 13 12" version="1.1" xmlns="http://www.w3.org/2000/svg" xmlns:xlink="http://www.w3.org/1999/xlink">
    <title>行容器</title>
    <g id="自定义表单" stroke="none" stroke-width="1" fill="none" fill-rule="evenodd">
        <g id="桌面端-HD" transform="translate(-42.000000, -626.000000)" fill="#666666" fill-rule="nonzero">
            <g id="编组-20" transform="translate(31.000000, 626.000000)">
                <g id="行容器" transform="translate(11.000000, 0.000000)">
                    <path d="M12.9230769,10.1538462 C12.9230769,11.1734488 12.0965257,12 11.0769231,12 L1.84615385,12 C0.826551231,12 0,11.1734488 0,10.1538462 L0,1.84615385 C0,0.826551231 0.826551231,0 1.84615385,0 L11.0769231,0 C12.0965257,0 12.9230769,0.826551231 12.9230769,1.84615385 L12.9230769,10.1538462 Z M12,1.85076923 C12,1.34123077 11.5864615,0.927692308 11.0769231,0.927692308 L6.46153846,0.923076923 L1.84615385,0.925846154 C1.33661538,0.927692308 0.923076923,1.34123077 0.923076923,1.84984615 L0.923076923,4.61538462 L0.926769231,10.1538462 C0.928615385,10.6633846 1.34215385,11.0769231 1.85076923,11.0769231 L9.23076923,11.0769231 L11.0787692,11.0741538 C11.5878494,11.0731357 12,10.6601581 12,10.1510769 L12,1.85076923 Z" id="形状"></path>
                    <polygon id="路径" points="0.923076923 2.76923077 12 2.76923077 12 3.69230769 0.923076923 3.69230769"></polygon>
                    <polygon id="路径" points="7.84615385 3.23076923 7.84615385 11.5384615 6.92307692 11.5384615 6.92307692 3.23076923"></polygon>
                </g>
            </g>
        </g>
    </g>
</svg>