<?xml version="1.0" encoding="UTF-8"?>
<svg width="14px" height="12px" viewBox="0 0 14 12" version="1.1" xmlns="http://www.w3.org/2000/svg" xmlns:xlink="http://www.w3.org/1999/xlink">
    <title>保存</title>
    <g id="自定义表单" stroke="none" stroke-width="1" fill="none" fill-rule="evenodd">
        <g id="桌面端-HD" transform="translate(-818.000000, -15.000000)" fill="#999999" fill-rule="nonzero">
            <g id="保存" transform="translate(818.000000, 15.000000)">
                <path d="M13.4777273,6.22928783 L12.8268182,6.22928783 C12.7683253,6.22834316 12.7118911,6.25089895 12.6701842,6.29192213 C12.6284773,6.33294531 12.6049919,6.38899899 12.605,6.44749999 L12.605,10.4475 C12.605,10.5679985 12.5073167,10.6656818 12.3868182,10.6656818 L1.31772728,10.6656818 C1.19722879,10.6656818 1.09954546,10.5679985 1.09954546,10.4475 L1.09954546,6.44749999 C1.09955359,6.38899899 1.07606814,6.33294531 1.03436123,6.29192213 C0.992654329,6.25089895 0.936220146,6.22834316 0.877727267,6.22928783 L0.226818187,6.22928783 C0.106319697,6.22928783 0.00863636932,6.3270015 0.00863636932,6.44749999 L0.00863636932,11.5384091 C0.00863636932,11.6589076 0.106319697,11.7565909 0.226818187,11.7565909 L13.4777273,11.7565909 C13.5982258,11.7565909 13.6959091,11.6589076 13.6959091,11.5384091 L13.6959091,6.44749999 C13.6959091,6.3270015 13.5982258,6.22928783 13.4777273,6.22928783 L13.4777273,6.22928783 Z" id="路径"></path>
                <path d="M6.6959091,8.68750001 C6.73698362,8.72970831 6.79337742,8.75351836 6.85227273,8.75351836 C6.91116803,8.75351836 6.96756183,8.72970831 7.00863636,8.68750001 L9.96499999,5.73113637 C10.0070007,5.69069341 10.030732,5.63489781 10.030732,5.57659091 C10.030732,5.51828401 10.0070007,5.46248841 9.96499999,5.42204545 L9.50318182,4.96022727 C9.46273886,4.91822654 9.40694326,4.89449531 9.34863637,4.89449531 C9.29032947,4.89449531 9.23453388,4.91822654 9.19409091,4.96022727 L7.39772727,6.76386363 L7.39772727,0.218409085 C7.39772727,0.0979105944 7.30004395,0.000227267045 7.17954545,0.000227267045 L6.525,0.000227267045 C6.40450151,0.000227267045 6.30681818,0.0979105944 6.30681818,0.218409085 L6.30681818,6.76386363 L4.51045454,4.96750001 C4.47001158,4.92549928 4.41421599,4.90176805 4.35590909,4.90176805 C4.29760219,4.90176805 4.2418066,4.92549928 4.20136364,4.96750001 L3.73954546,5.41477273 C3.69754473,5.45521569 3.6738135,5.51101129 3.6738135,5.56931818 C3.6738135,5.62762508 3.69754473,5.68342068 3.73954546,5.72386364 L6.6959091,8.68750001 Z" id="路径"></path>
            </g>
        </g>
    </g>
</svg>