<?xml version="1.0" encoding="UTF-8"?>
<svg width="20px" height="9px" viewBox="0 0 20 9" version="1.1" xmlns="http://www.w3.org/2000/svg" xmlns:xlink="http://www.w3.org/1999/xlink">
    <title>滑块</title>
    <g id="自定义表单" stroke="none" stroke-width="1" fill="none" fill-rule="evenodd">
        <g id="桌面端-HD" transform="translate(-220.000000, -329.000000)" fill-rule="nonzero">
            <g id="编组-10" transform="translate(218.000000, 329.000000)">
                <g id="滑块" transform="translate(2.000000, 0.000000)">
                    <path d="M1.50967742,2.59435484 L18.4774194,2.59435484 C19.4752688,2.59435484 19.9741935,3.09327957 19.9741935,4.09112903 L19.9741935,4.07822581 C19.9741935,5.07607527 19.4752688,5.575 18.4774194,5.575 L1.50967742,5.575 C0.511827957,5.575 0.0129032258,5.07607527 0.0129032258,4.07822581 L0.0129032258,4.09112903 C0.0129032258,3.09327957 0.511827957,2.59435484 1.50967742,2.59435484 L1.50967742,2.59435484 Z" id="路径" fill="#666666"></path>
                    <path d="M5.13548387,0.633064516 L9.1483871,0.633064516 C10.0086022,0.633064516 10.4387097,1.06317204 10.4387097,1.9233871 L10.4387097,6.24596774 C10.4387097,7.1061828 10.0086022,7.53629032 9.1483871,7.53629032 L5.13548387,7.53629032 C4.27526882,7.53629032 3.84516129,7.1061828 3.84516129,6.24596774 L3.84516129,1.9233871 C3.84516129,1.06317204 4.27526882,0.633064516 5.13548387,0.633064516 Z" id="路径" fill="#FFFFFF"></path>
                    <path d="M9.1483871,8.15568911 L5.13548387,8.15568911 C4.63019614,8.15908257 4.14442272,7.96076295 3.78591294,7.60467553 C3.42740317,7.24858812 3.22580645,6.76417039 3.22580645,6.25887097 L3.22580645,1.9233871 C3.22580645,0.868701381 4.08079816,0.0137096774 5.13548387,0.0137096774 L9.1483871,0.0137096774 C10.2001449,0.020745082 11.0510291,0.871629325 11.0580645,1.9233871 L11.0580645,6.25887097 C11.0509722,7.30851418 10.1980543,8.15568911 9.1483871,8.15568911 L9.1483871,8.15568911 Z M5.13548387,1.25241935 C4.76491862,1.25241935 4.46451612,1.55282185 4.46451612,1.9233871 L4.46451612,6.25887097 C4.46451612,6.43565933 4.53558218,6.60502616 4.66179816,6.72881491 C4.78801413,6.85260366 4.95872949,6.92040193 5.13548387,6.91693548 L9.1483871,6.91693548 C9.32514148,6.92040193 9.49585683,6.85260366 9.62207281,6.72881491 C9.74828879,6.60502616 9.81935485,6.43565933 9.81935485,6.25887097 L9.81935485,1.9233871 C9.81935485,1.55282185 9.51895235,1.25241935 9.1483871,1.25241935 L5.13548387,1.25241935 Z" id="形状" fill="#666666"></path>
                </g>
            </g>
        </g>
    </g>
</svg>