<?xml version="1.0" standalone="no"?><!DOCTYPE svg PUBLIC "-//W3C//DTD SVG 1.1//EN" "http://www.w3.org/Graphics/SVG/1.1/DTD/svg11.dtd"><svg t="1600069718841" class="icon" viewBox="0 0 1024 1024" version="1.1" xmlns="http://www.w3.org/2000/svg" p-id="11229" xmlns:xlink="http://www.w3.org/1999/xlink" width="16" height="16"><defs><style type="text/css"></style></defs><path d="M829.793103 953.247373C829.793103 953.384024 194.159079 953.37931 194.159079 953.37931 194.165054 953.37931 194.206897 644.413793 194.206897 644.413793L194.206897 508.057706C194.206897 488.052595 177.603662 472.042867 157.611788 472.770737 156.572041 472.808607 155.528946 472.827586 154.482759 472.827586 108.167017 472.827586 70.62069 435.281267 70.62069 388.965517 70.62069 385.416881 70.839116 381.904278 71.271322 378.438268L72.327978 371.877853C72.979796 368.583786 74.187293 364.243438 75.736239 360.029943 76.331741 358.410046 76.807675 356.748659 77.160216 355.059165L136.387985 71.218494 101.822144 64.005809 135.844293 73.456393C136.006985 72.8707 138.967169 70.62069 139.617345 70.62069L884.382655 70.62069C884.95834 70.62069 888.013354 72.943934 888.155706 73.456393L922.177857 64.005809 887.612015 71.218494 946.839783 355.059165C947.192325 356.748659 947.668259 358.410046 948.263761 360.029943 949.812708 364.243438 951.020203 368.583786 951.871938 373.020125L952.526816 375.813085 954.667506 383.519567 988.689655 374.068966 953.451935 371.805431C953.191767 375.855634 953.191767 378.681026 953.317376 384.684385 953.364238 386.924085 953.37931 387.88954 953.37931 388.965517 953.37931 435.281267 915.832984 472.827586 869.517241 472.827586 868.471054 472.827586 867.42796 472.808607 866.388212 472.770737 846.396338 472.042867 829.793103 488.052595 829.793103 508.057706L829.793103 644.413793 829.793103 953.247373ZM900.413793 508.057706 865.103448 508.057706 863.818685 543.344675C865.714524 543.413707 867.61427 543.448276 869.517241 543.448276 954.835714 543.448276 1024 474.283997 1024 388.965517 1024 387.23584 1023.9797 385.935484 1023.922612 383.207089 1023.839241 379.222404 1023.839241 377.704536 1023.927375 376.3325 1024.1808 372.387275 1023.769897 368.427502 1022.711804 364.618364L1020.571115 356.911881 986.548966 366.362483 1021.225993 359.704841C1019.650567 351.49907 1017.414933 343.463071 1014.54749 335.66298L981.405625 347.846462 1015.971467 340.633759 956.743698 56.793106C947.568958 23.483427 916.688693 0 884.382655 0L139.617345 0C107.243651 0 76.453208 23.403626 67.799994 54.555207L8.028533 340.633759 42.594375 347.846462 9.452511 335.66298C6.585067 343.463071 4.349433 351.49907 2.774007 359.704841L1.355404 368.553596C0.399907 376.062764 0 382.493837 0 388.965517 0 474.283997 69.164287 543.448276 154.482759 543.448276 156.385731 543.448276 158.285476 543.413707 160.181315 543.344675L158.896552 508.057706 123.586207 508.057706 123.586207 644.413793 123.586207 953.247373C123.586207 992.381193 155.119402 1024 194.159079 1024L829.840921 1024C868.895866 1024 900.413793 992.292052 900.413793 953.247373L900.413793 644.413793 900.413793 508.057706ZM900.413793 489.931034 829.793103 489.931034 829.793103 508.057706 900.413793 508.057706 900.413793 489.931034ZM123.586207 508.057706C123.586207 528.062835 140.189442 544.072563 160.181315 543.344675 243.092489 540.325959 308.965517 472.156513 308.965517 388.965517 308.965517 382.493837 308.56561 376.062764 307.772142 369.699663L272.733168 374.068966 272.733168 409.37931 274.577177 374.068966 239.538202 369.699663C238.744735 376.062764 238.344828 382.493837 238.344828 388.965517 238.344828 474.283997 307.509114 543.448276 392.827586 543.448276 478.146059 543.448276 547.310345 474.283997 547.310345 388.965517 547.310345 382.493837 546.910438 376.062764 546.11697 369.699663L511.077996 374.068966 511.077996 409.37931 512.922004 374.068966 477.88303 369.699663C477.089562 376.062764 476.689655 382.493837 476.689655 388.965517 476.689655 474.283997 545.853941 543.448276 631.172414 543.448276 716.490886 543.448276 785.655172 474.283997 785.655172 388.965517 785.655172 382.493837 785.255265 376.062764 784.461798 369.699663L749.422823 374.068966 749.422823 409.37931 751.266832 374.068966 716.227858 369.699663C715.43439 376.062764 715.034483 382.493837 715.034483 388.965517 715.034483 472.156513 780.907511 540.325959 863.818685 543.344675L866.388212 472.770737C821.421451 471.133555 785.655172 434.120404 785.655172 388.965517 785.655172 385.416881 785.873599 381.904278 786.305804 378.438268 788.933408 357.366572 772.501723 338.758621 751.266832 338.758621 728.187932 338.758621 711.756247 357.366572 714.383851 378.438268 714.816056 381.904278 715.034483 385.416881 715.034483 388.965517 715.034483 435.281267 677.488156 472.827586 631.172414 472.827586 584.856671 472.827586 547.310345 435.281267 547.310345 388.965517 547.310345 385.416881 547.528771 381.904278 547.960977 378.438268 550.58858 357.366572 534.156895 338.758621 512.922004 338.758621 489.843105 338.758621 473.41142 357.366572 476.039023 378.438268 476.471229 381.904278 476.689655 385.416881 476.689655 388.965517 476.689655 435.281267 439.143329 472.827586 392.827586 472.827586 346.511844 472.827586 308.965517 435.281267 308.965517 388.965517 308.965517 385.416881 309.183944 381.904278 309.616149 378.438268 312.243753 357.366572 295.812068 338.758621 274.577177 338.758621 251.498277 338.758621 235.066592 357.366572 237.694196 378.438268 238.126401 381.904278 238.344828 385.416881 238.344828 388.965517 238.344828 434.120404 202.578549 471.133555 157.611788 472.770737L158.896552 508.057706 194.206897 508.057706 194.206897 489.931034 123.586207 489.931034 123.586207 508.057706Z" p-id="11230"></path></svg>