<?xml version="1.0" encoding="UTF-8"?>
<svg width="20px" height="12px" viewBox="0 0 20 12" version="1.1" xmlns="http://www.w3.org/2000/svg" xmlns:xlink="http://www.w3.org/1999/xlink">
    <title>开关 关</title>
    <g id="自定义表单" stroke="none" stroke-width="1" fill="none" fill-rule="evenodd">
        <g id="桌面端-HD" transform="translate(-129.000000, -328.000000)" fill="#666666" fill-rule="nonzero">
            <g id="编组-11" transform="translate(127.000000, 328.000000)">
                <g id="开关-关" transform="translate(2.000000, 0.000000)">
                    <path d="M5.7705,11.5446 L13.3545,11.5446 C16.5417,11.5446 19.1241,8.9622 19.1241,5.775 C19.1241,2.5878 16.5417,0.0054 13.3545,0.0054 L5.7705,0.0054 C2.5833,0.0054 0.0009,2.5878 0.0009,5.775 C0.0009,8.9622 2.5833,11.5446 5.7705,11.5446 Z M5.7609,0.5526 C8.6505,0.5526 10.9929,2.895 10.9929,5.7846 C10.9929,8.6742 8.6505,11.0166 5.7609,11.0166 C2.8713,11.0166 0.5289,8.6742 0.5289,5.7846 C0.5289,2.895 2.8713,0.5526 5.7609,0.5526 Z" id="形状"></path>
                </g>
            </g>
        </g>
    </g>
</svg>