<?xml version="1.0" standalone="no"?><!DOCTYPE svg PUBLIC "-//W3C//DTD SVG 1.1//EN" "http://www.w3.org/Graphics/SVG/1.1/DTD/svg11.dtd"><svg t="1599443083186" class="icon" viewBox="0 0 1024 1024" version="1.1" xmlns="http://www.w3.org/2000/svg" p-id="15633" xmlns:xlink="http://www.w3.org/1999/xlink" width="32" height="32"><defs><style type="text/css"></style></defs><path d="M992.992 762.8a98.064 98.064 0 0 0-69.344-28.512H832.24c-27.216 0-51.232 11.04-69.392 28.512-17.504 18.144-28.48 42.096-28.48 69.344v91.36c0 27.232 10.992 51.856 28.48 69.36 18.16 17.52 42.176 28.496 69.392 28.496h91.408a97.92 97.92 0 0 0 69.344-28.496 97.904 97.904 0 0 0 28.544-69.36v-91.36c0-27.248-11.04-51.2-28.544-69.344z m-29.84 160.704c0 11.024-4.512 20.752-11.648 27.872a39.04 39.04 0 0 1-27.872 11.664h-91.408a39.008 39.008 0 0 1-27.856-11.664c-7.12-7.12-11.04-16.848-11.04-27.872v-91.36c0-11.008 3.92-20.736 11.04-27.84 7.12-7.12 16.832-11.04 27.856-11.04h91.408c11.024 0 20.752 3.92 27.872 11.04 7.12 7.104 11.648 16.848 11.648 27.84v91.36z m-405.12-189.216h-91.424c-27.216 0-51.84 11.04-69.344 28.512-18.176 18.144-28.528 42.096-28.528 69.344v91.36c0 27.232 10.352 51.856 28.528 69.36a97.84 97.84 0 0 0 69.344 28.496h91.424c26.576 0 51.184-10.992 69.36-28.496a97.856 97.856 0 0 0 28.496-69.36v-91.36c0-27.248-10.992-51.2-28.496-69.344-18.176-17.472-42.784-28.512-69.36-28.512z m38.896 189.216c0 11.024-3.904 20.752-11.04 27.872a40.128 40.128 0 0 1-27.84 11.664h-91.424a39.072 39.072 0 0 1-27.872-11.664 39.248 39.248 0 0 1-11.664-27.872v-91.36c0-11.008 4.56-20.736 11.664-27.84 7.12-7.12 16.864-11.04 27.872-11.04h91.424c10.352 0 20.736 3.92 27.84 11.04 7.136 7.104 11.04 16.848 11.04 27.84v91.36z m30.464-892.336c-18.176-17.504-42.8-28.528-69.36-28.528h-91.424c-27.216 0-51.84 11.008-69.344 28.528a97.312 97.312 0 0 0-28.528 69.328v91.376c0 27.216 10.352 51.84 28.528 69.328 17.504 18.16 42.128 28.528 69.344 28.528h91.424c26.56 0 51.184-10.352 69.36-28.528a97.984 97.984 0 0 0 28.496-69.328v-91.376c0-26.576-11.024-51.2-28.496-69.328z m-30.464 160.704c0 11.008-3.904 20.72-11.04 27.856a40.224 40.224 0 0 1-27.84 11.664h-91.424a39.2 39.2 0 0 1-27.872-11.664 39.264 39.264 0 0 1-11.664-27.856v-91.376c0-10.368 4.56-20.736 11.664-27.872a41.52 41.52 0 0 1 27.872-11.008h91.424c10.352 0 20.736 3.888 27.84 11.008 7.136 7.136 11.04 17.504 11.04 27.872v91.376zM117.2 672.064c0 8.432 3.264 15.584 8.432 20.752a28.8 28.8 0 0 0 20.736 8.416c7.776 0 15.552-3.232 20.736-8.416 5.184-5.168 8.416-12.32 8.416-20.752V518.496H482.8V672.08c0 8.416 3.264 15.568 8.416 20.736 5.2 5.184 12.992 9.04 20.768 9.04 8.416 0 15.568-3.856 20.736-9.04a28.8 28.8 0 0 0 8.416-20.736V518.496h307.28v153.568c0 8.432 3.232 15.584 9.088 20.752 5.2 5.184 12.288 9.04 20.72 9.04 7.776 0 14.912-3.856 20.752-9.04 5.2-5.168 8.4-12.32 8.4-20.752v-182.72c0-7.792-3.2-15.568-8.4-20.752-5.84-5.184-12.976-8.416-20.752-8.416H541.808v-108.24c0-7.776-3.888-14.912-9.072-20.736A28.8 28.8 0 0 0 512 322.784a30.08 30.08 0 0 0-20.768 8.416c-5.152 5.824-8.416 12.96-8.416 20.736v108.24H146.384c-8.448 0-15.552 3.232-20.736 8.416-5.168 5.184-9.088 12.96-9.088 20.752h0.656v182.72h-0.016z m74.56 62.224h-91.424c-27.2 0-51.184 11.04-69.344 28.512C13.488 780.944 2.48 804.896 2.48 832.144v91.36c0 27.232 11.008 51.856 28.512 69.36 18.16 17.52 42.144 28.496 69.344 28.496h91.424a97.856 97.856 0 0 0 69.344-28.496c18.16-17.504 28.528-42.128 28.528-69.36v-91.36c0-27.248-10.368-51.2-28.528-69.344a98 98 0 0 0-69.344-28.512z m39.52 189.216c0 11.024-4.528 20.752-11.648 27.872a39.168 39.168 0 0 1-27.888 11.664h-91.408a40.128 40.128 0 0 1-27.84-11.664c-7.12-7.12-11.04-16.848-11.04-27.872v-91.36c0-11.008 3.92-20.736 11.04-27.84 7.104-7.12 16.848-11.04 27.856-11.04h91.424c11.008 0 20.736 3.92 27.888 11.04a39.2 39.2 0 0 1 11.648 27.84v91.36h-0.032z" p-id="15634"></path></svg>