<?xml version="1.0" encoding="UTF-8"?>
<svg width="13px" height="12px" viewBox="0 0 13 12" version="1.1" xmlns="http://www.w3.org/2000/svg" xmlns:xlink="http://www.w3.org/1999/xlink">
    <title>多行文本</title>
    <g id="自定义表单" stroke="none" stroke-width="1" fill="none" fill-rule="evenodd">
        <g id="桌面端-HD" transform="translate(-133.000000, -92.000000)" fill="#666666" fill-rule="nonzero">
            <g id="编组-3" transform="translate(115.000000, 92.000000)">
                <g id="多行文本" transform="translate(18.000000, 0.000000)">
                    <path d="M2.7275851,6.71130186 L3.44311304,6.71130186 L3.44311304,0.720186342 L6.22675528,0.720186342 L6.22675528,0.00465838043 L0.00905590761,0.00465838043 L0.00905590761,0.720186342 L2.7275851,0.720186342 L2.7275851,6.71130186 Z M7.40308322,0.00465838043 L12.0564,0.00465838043 L12.0564,0.720186342 L7.40308322,0.720186342 L7.40308322,0.00465838043 Z M7.40308322,2.80714286 L12.0564,2.80714286 L12.0564,3.52267081 L7.40308322,3.52267081 L7.40308322,2.80714286 Z M7.40308322,5.60962733 L12.0564,5.60962733 L12.0564,6.32515528 L7.40308322,6.32515528 L7.40308322,5.60962733 Z M0.00905590761,8.4121118 L12.0564,8.4121118 L12.0564,9.12763974 L0.00905590761,9.12763974 L0.00905590761,8.4121118 Z M0.00905590761,11.2145963 L12.0564,11.2145963 L12.0564,11.9301242 L0.00905590761,11.9301242 L0.00905590761,11.2145963 Z" id="形状"></path>
                </g>
            </g>
        </g>
    </g>
</svg>