<?xml version="1.0" encoding="UTF-8"?>
<svg width="15px" height="12px" viewBox="0 0 15 12" version="1.1" xmlns="http://www.w3.org/2000/svg" xmlns:xlink="http://www.w3.org/1999/xlink">
    <title>文本描述</title>
    <g id="自定义表单" stroke="none" stroke-width="1" fill="none" fill-rule="evenodd">
        <g id="桌面端-HD" transform="translate(-223.000000, -154.000000)" fill="#666666" fill-rule="nonzero">
            <g id="编组-5备份" transform="translate(206.000000, 154.000000)">
                <g id="文本描述" transform="translate(17.000000, 0.000000)">
                    <path d="M14.6666667,11.1333333 L14.6666667,12 L0,12 L0,11.1333333 L14.6666667,11.1333333 Z M14.6666667,8.68333334 L14.6666667,9.55 L0,9.55 L0,8.68333334 L14.6666667,8.68333334 Z M6,6.23333333 L6,7.1 L0,7.1 L0,6.23333333 L6,6.23333333 Z M11.5373333,0 L13.9206667,6.188 L12.9066667,6.188 L12.326,4.59333333 L9.66533333,4.59333333 L9.08466667,6.188 L8.07933333,6.188 L10.4626667,0 L11.5373333,0 Z M6,3.78333333 L6,4.65 L0,4.65 L0,3.78333333 L6,3.78333333 Z M11.0173333,1.014 L10.9826667,1.014 L9.95133333,3.81333333 L12.04,3.81333333 L11.0173333,1.014 L11.0173333,1.014 Z M6,1.33333334 L6,2.2 L0,2.2 L0,1.33333334 L6,1.33333334 Z" id="形状"></path>
                </g>
            </g>
        </g>
    </g>
</svg>