<?xml version="1.0" encoding="UTF-8"?>
<svg width="12px" height="12px" viewBox="0 0 12 12" version="1.1" xmlns="http://www.w3.org/2000/svg" xmlns:xlink="http://www.w3.org/1999/xlink">
    <title>时间范围</title>
    <g id="自定义表单" stroke="none" stroke-width="1" fill="none" fill-rule="evenodd">
        <g id="桌面端-HD" transform="translate(-133.000000, -390.000000)" fill="#666666" fill-rule="nonzero">
            <g id="编组-14" transform="translate(115.000000, 390.000000)">
                <g id="时间范围" transform="translate(18.000000, 0.000000)">
                    <path d="M5.8806,0.00397777778 C9.01640505,0.00458176821 11.5993005,2.46717354 11.749358,5.59938624 C11.8994155,8.73159895 9.56376371,11.4298276 6.44237778,11.7302 L6.44237778,11.7565111 L5.8806,11.7565111 L5.8806,10.1828222 L6.44237778,10.1828222 L6.44237778,10.7268222 L6.46584444,10.7254 C9.01257584,10.4179898 10.8866292,8.19145234 10.7549106,5.62961861 C10.6231919,3.06778488 8.53066622,1.04519215 5.96583619,1.00059682 C3.40100615,0.9560015 1.2394319,2.90462717 1.01873333,5.46033333 L1.57766667,5.46033333 L1.57766667,6.09037778 L0.00397777778,6.09037778 L0.00397777778,5.46033333 L0.0189111111,5.46033333 L0.0246,5.3878 C0.281075356,2.34416488 2.82617791,0.00427763151 5.8806,0.00397777778 Z M4.52522222,10.6784667 C4.75348889,10.7545556 4.98602222,10.8164222 5.22211111,10.8633556 L5.06068889,11.6349111 C4.7942098,11.5801088 4.53132164,11.5091029 4.27348889,11.4222889 L4.52522222,10.6784667 L4.52522222,10.6784667 Z M3.23455556,10.0413111 C3.43366667,10.1742889 3.64202222,10.2951778 3.85677778,10.4032667 L3.50975556,11.1072667 C3.26393623,10.9850918 3.02617745,10.8473295 2.79793333,10.6948222 L3.23455556,10.0406 L3.23455556,10.0413111 Z M2.16788889,9.09268889 C2.32717778,9.2726 2.49713333,9.44397778 2.67562222,9.60468889 L2.14797778,10.1821111 L1.94957778,10.0014889 C1.81965106,9.87741062 1.69554742,9.74737469 1.57766667,9.6118 L2.16788889,9.09268889 L2.16788889,9.09268889 Z M1.35722222,7.90015556 C1.46388889,8.11562222 1.58477778,8.32397778 1.71988889,8.52237778 L1.06566667,8.96326667 C0.913133097,8.7347927 0.77537035,8.49679568 0.653222222,8.25073333 L1.35722222,7.90015556 L1.35722222,7.90015556 Z M5.87988889,2.36486667 C6.1174,2.36486667 6.31366667,2.5398 6.3478,2.76735556 L6.35277778,2.83704444 L6.35277778,6.2646 L8.25002222,7.59224444 C8.45229575,7.73290417 8.51242265,8.00544324 8.38810882,8.21815387 C8.263795,8.4308645 7.99682968,8.51224206 7.775,8.40504444 L7.70815556,8.36593333 L5.60966667,6.89677778 C5.5052276,6.8238163 5.43470374,6.71174748 5.41411111,6.58602222 L5.40842222,6.50993333 L5.40842222,2.83704444 C5.40842222,2.57677778 5.61962222,2.36486667 5.8806,2.36486667 L5.87988889,2.36486667 Z M0.912777778,6.55046667 C0.960422222,6.78513333 1.02228889,7.01624444 1.09766667,7.24308889 L0.3382,7.49126667 C0.250462046,7.23377163 0.179673671,6.97080944 0.126288889,6.70406667 L0.912777778,6.55046667 L0.912777778,6.55046667 Z" id="形状"></path>
                </g>
            </g>
        </g>
    </g>
</svg>