<?xml version="1.0" encoding="UTF-8"?>
<svg width="12px" height="12px" viewBox="0 0 12 12" version="1.1" xmlns="http://www.w3.org/2000/svg" xmlns:xlink="http://www.w3.org/1999/xlink">
    <title>时间选择</title>
    <g id="自定义表单" stroke="none" stroke-width="1" fill="none" fill-rule="evenodd">
        <g id="桌面端-HD" transform="translate(-44.000000, -390.000000)" fill="#666666" fill-rule="nonzero">
            <g id="编组-13" transform="translate(25.000000, 390.000000)">
                <g id="时间选择" transform="translate(19.000000, 0.000000)">
                    <path d="M9.841,5.857 L6.241,5.857 L6.241,2.257 C6.241,2.0360861 6.0619139,1.857 5.841,1.857 C5.6200861,1.857 5.441,2.0360861 5.441,2.257 L5.441,6.257 C5.441,6.4779139 5.6200861,6.657 5.841,6.657 L9.841,6.657 C10.0619139,6.657 10.241,6.47791389 10.241,6.257 C10.241,6.0360861 10.0619139,5.857 9.841,5.857 L9.841,5.857 Z" id="路径"></path>
                    <path d="M6,12 C4.9975,12 4.0045,11.747 3.129,11.2685 C3.00988033,11.1930188 2.96981689,11.0380268 3.03743757,10.9142757 C3.10505826,10.7905245 3.25713534,10.7405228 3.385,10.8 C4.18747239,11.2370976 5.08670776,11.4660752 6.0005,11.466 C9.015,11.466 11.4675,9.014 11.4675,5.999 C11.4675,2.985 9.0155,0.5325 6.0005,0.5325 C2.98600001,0.5325 0.534,2.9845 0.534,5.999 C0.534,6.93 0.774999996,7.853 1.2315,8.667 C1.26626219,8.72876257 1.27499085,8.801828 1.25575602,8.87004125 C1.2365212,8.9382545 1.1909074,8.9959964 1.129,9.0305 C1.06737399,9.06527961 0.99442984,9.07407063 0.926305298,9.0549282 C0.858180756,9.03578576 0.800491367,8.9902878 0.765999996,8.9285 C0.264660107,8.03362846 0.00094278301,7.02523675 0,5.9995 C0,2.6915 2.6915,0 6,0 C9.3085,0 12,2.6915 12,5.9995 C12,9.308 9.3085,12 6,12 Z" id="路径"></path>
                </g>
            </g>
        </g>
    </g>
</svg>