<?xml version="1.0" encoding="UTF-8"?>
<svg width="12px" height="12px" viewBox="0 0 12 12" version="1.1" xmlns="http://www.w3.org/2000/svg" xmlns:xlink="http://www.w3.org/1999/xlink">
    <title>上传</title>
    <g id="自定义表单" stroke="none" stroke-width="1" fill="none" fill-rule="evenodd">
        <g id="桌面端-HD" transform="translate(-43.000000, -514.000000)" fill="#666666" fill-rule="nonzero">
            <g id="编组-19" transform="translate(37.000000, 514.000000)">
                <g id="上传" transform="translate(6.000000, 0.000000)">
                    <path d="M10.499625,12 L1.16690276,12 C0.522956426,12 0.000499957031,11.4625448 0.000499957031,10.8001 L0.000499957031,9.42871427 C0.000499957031,9.14473794 0.224481293,8.91475711 0.500458301,8.91475711 C0.776435309,8.91475711 1.00041663,9.14473794 1.00041663,9.42871427 L1.00041663,10.8001 C1.00041663,10.8950921 1.07541039,10.9715857 1.16690276,10.9715857 L10.499625,10.9715857 C10.5444445,10.9709276 10.5871662,10.9524895 10.6183894,10.9203286 C10.6496127,10.8881677 10.6667791,10.8449193 10.6661112,10.8001 L10.6661112,9.42871427 C10.6661112,9.14473794 10.8900925,8.91475711 11.1660695,8.91475711 C11.4420465,8.91475711 11.6660278,9.14473794 11.6660278,9.42871427 L11.6660278,10.8001 C11.6660278,11.4625448 11.1440713,12 10.499625,12 Z M5.83351387,0.881926512 C5.96700275,0.881926512 6.09549204,0.936921926 6.18948421,1.03541372 C6.28347638,1.1329056 6.33497208,1.26539455 6.33347221,1.40338305 L6.33347221,8.25981169 C6.33347221,8.54378802 6.10949087,8.77376885 5.83351387,8.77376885 C5.55753688,8.77376885 5.33355554,8.54378802 5.33355553,8.25981169 L5.33355553,1.40338305 C5.3315557,1.26539455 5.38355136,1.13340555 5.47754354,1.03541372 C5.57029492,0.937834909 5.69888762,0.882388341 5.83351387,0.881926512 L5.83351387,0.881926512 Z M5.83351387,0.000999914062 C5.9665028,0.00199982812 6.09349221,0.0559953281 6.18648446,0.151987336 L9.51970669,3.58020165 C9.61419881,3.67619365 9.6671944,3.80668277 9.6671944,3.94317141 C9.6671944,4.08016 9.61419881,4.21114908 9.51970669,4.30664112 C9.4268388,4.40183711 9.29947756,4.45551779 9.16648612,4.45551779 C9.03349469,4.45551779 8.90613345,4.40183711 8.81326556,4.30664112 L5.48004333,0.878426801 C5.38529829,0.781384742 5.332351,0.651080579 5.33255503,0.515457047 C5.33255503,0.378468457 5.3855512,0.247979332 5.48004333,0.151987336 C5.57253562,0.0564952969 5.700025,0.00199983984 5.83351387,0.000999914062 L5.83351387,0.000999914062 Z M5.83351388,0.000999914062 C5.9665028,0.00199982812 6.09349221,0.0559953281 6.18648446,0.151987336 C6.38448294,0.353658948 6.38448294,0.676755189 6.18648446,0.878426801 L2.85376219,4.30714107 C2.76087671,4.40249345 2.63340733,4.45627418 2.50029164,4.45627418 C2.36717595,4.45627418 2.23970657,4.40249345 2.14682109,4.30714107 C2.05195478,4.20997533 1.99899783,4.07946785 1.99933181,3.94367136 C1.99933181,3.80718274 2.05282894,3.67619365 2.14682109,3.58020165 L5.48004333,0.151987336 C5.57253563,0.0564952969 5.700025,0.00199983984 5.83351388,0.000999914062 Z" id="形状"></path>
                </g>
            </g>
        </g>
    </g>
</svg>